<mxfile host="65bd71144e">
    <diagram id="HIP3nbAZw_EuaXWnEj3U" name="Page-1">
        <mxGraphModel dx="1080" dy="749" grid="1" gridSize="10" guides="1" tooltips="1" connect="1" arrows="1" fold="1" page="1" pageScale="1" pageWidth="850" pageHeight="1100" background="#FFCE2B" math="0" shadow="0">
            <root>
                <mxCell id="0"/>
                <mxCell id="1" parent="0"/>
                <mxCell id="7" value="http://ics2o.mths.ca" style="swimlane;whiteSpace=wrap;html=1;" parent="1" vertex="1">
                    <mxGeometry x="40" y="40" width="760" height="480" as="geometry"/>
                </mxCell>
                <mxCell id="8" value="" style="rounded=0;whiteSpace=wrap;html=1;fillColor=#e51400;fontColor=#ffffff;strokeColor=#B20000;" vertex="1" parent="7">
                    <mxGeometry y="20" width="760" height="50" as="geometry"/>
                </mxCell>
                <mxCell id="9" value="" style="shape=image;verticalLabelPosition=bottom;labelBackgroundColor=default;verticalAlign=top;aspect=fixed;imageAspect=0;image=data:image/png,iVBORw0KGgoAAAANSUhEUgAAALoAAAGACAYAAAAamHiOAAAAAXNSR0IArs4c6QAAIABJREFUeJzsfXmcFMXZ/7eq59xdFnY5BOQGRUUFjLev8koSDCheBFFiEjVREk0UDPKLZwLBRI0S0Gi8knjxavDAmMT7wAsEDCqKiJHIIjeLsOyyO0d3Pb8/uqunuqfn3NnZmWW/fIbd7bO65ltPP/VcxYiI0ImCIlWXMsaK3JJOSPjauwEdAdnIik6Sty94ezegE50oBjolegHQKa1LH50SvRP7BTqJ3on9Ap1E78R+gU6id2K/QCfRO7FfoJPondgv4Mvk7Og0nXWiI6BTondiv0An0TuxX6CT6J3YL9BJ9E7sF+gkeif2C3QSvRP7BTqJ3on9AiUVpktEDru9auP32t5p488e6fwl6frR67xy7HdfKTWaiBxkd3cyYwxCCAghwBgD5/m9kErpmYsJIQSICC0tLfD7/eCcw+czZV2qPpHnAEAkEkFDQwP27NkDIoLP50PXrl3RrVs3BINBxzVKrY9LSqIzxrBx40b8/e9/xxdffIEjjjgCZ5xxBnr16uXouFdffRXPPfdcVilsbvzwhz/E8ccfX8hmlwWICF988QXmzJmD5cuXo6qqCpdddhkuvvhihEKhlOe1tLTgiy++wKJFi/Dcc8+hrq4OkUjE7vtwOIyhQ4figgsuwJQpU9C/f/+8BVCbgkoIa9eupQMOOICCwSAFAgHy+/3Uu3dv+vjjj+1jhBA0d+5cYozl/OGc08KFC9vxCYsPIQQJIWjdunV0wAEHkKZpVFtba/fvxIkTyTAM+1jDMOzPJ598Qt/4xjcoHA6TpmkZ+7aqqoouu+wy2rt3L+m6TrqukxCinXvARMkMvebmZowbNw67d+/G9OnT8eabb+IHP/gBvv76a8yZM6e9m1f2uPPOO1FfX48zzzwTn3zyCd5++21UVFTgpZdewvr1620JTUQQQmDevHk45ZRT8NFHHyEajUIIkfb6RITm5mb85S9/wbe//W2sX7++GI+VNUpGddm0aRO2bNkCxhhmzpyJ2tpajB49Gk8//TSWLl2a9txgMIjBgwcDSK8bMsbQpUuXgra7HCCEwJo1awAA11xzDXr16oVevXrhhBNOwCuvvIK6ujoMGzbMJvvNN9+Mm2++2Z4LyU9lZSWGDx+OAQMGoKKiAs3Nzairq8O6devQ1NRkn79lyxb4fL6S0tNLhujNzc0QQiAUCqFbt27gnCMQCCAUCqGxsTHtuQMGDMDHH3/s2Jaqk0up84sFIoJhGACAiooKe3swGAQAxONxW5K/8847uO2226DrOgDA5/PB7/fjW9/6Fn7/+99j2LBhAJz9uGbNGlx77bV47bXXIITAHXfcgSFDhhTr8bJCyaguNTU14JwjFouhrq4OQgjs3LkTe/bsQd++fbO6hip90n32NzDGMGTIEDDGcO+999p9++abb4JzjgEDBoCIsHPnTpx++umIxWL2uUII/OlPf8Lf/vY3HHzwweCcg3Pu6M8RI0bgmWeewcsvv4xFixbhzDPPbMenTYH2mx44EY/H6fTTTye/309HH300XXXVVTRs2DAKBAI0d+5c+zivyejBBx9Muq6TYRj25CvVZ3/FqlWrqFu3buT3++mEE06gIUOGkM/no/POO4+am5spEonQvHnzSNM0+xMIBOh3v/sdtbS0kK7r7f0IrULJEJ2IqKmpiSZNmkTdu3enqqoq6tWrF02fPp0aGxvtYzqJnh8Mw6A33niDxo4dS8OGDaMjjzySZs2aRc3NzaTrOu3bt48GDRrkIPrw4cMpEolQLBYre6KXjI4OmPrjk08+ifr6etTX16Nfv345Tx6p02vqCcYYxowZgzFjxiTtE0Lggw8+wMaNG+1tnHOcf/75th5f7igpokv06NEDPXr0aO9m7Ff46KOPADi90RdffHF7NafgKCmi5yuFo9EoPv10DTjXEI1GbUuBYRiIRqMIh8PgnOOggw5yeO06pX4CX331lePvnj17ol+/fu3UmtbD/WYvKaLni+3bt2Pq1O+BiLB582YIIdC3b19omoa9e/eiS5cu6NGjB1599VUAiYfvJHoCe/fudfxdU1PTTi0pDNR4KSIqHfNia2AYBurr69HU1IR4PA5N07B582bouo6qqioQEUKhkMO82EnyBLz6gojAOc8rnqgUIAkuUfZElxGN9fX12Lx5M3r06IEDDjgAoVAIW7Zsga7r4Jzbnrty/eJyhXzWbJ6ZMYauXbs6ttXX1yeFTZcTZLtl6ELZqy5EhN69e2POnDnw+XwIBoMIBAJgjKGxsRGapqGiogIVFRUOR0cnnOjXrx8YY/ag2L17N9avX49hw4aVZX91SB29uroal1xySdYrT5TjF9fWGDlyZFJyy0MPPYS5c+e2Y6vyhzpogQ6gugSDQRx44IHt3Yyyx9FHH43u3bvbfwsh8Le//Q3RaDSr81VSlZJ6KAVbWROdc44ePXrA5/OlTPmSUkqN0dgfkG3cj5R8fr8fV199teMaGzZswC9/+Uvoum5nGnn1s8z6MgwDsVgsY0hvMSDbKttdtkTXNA0DBgxAly5dkqSOWz0pyYyXEoLsrylTpiAcDtvbhRC4++67cccddziyitwgInz55ZeYPHkyLr/8cuzbt69YTc8aZcsAxpgd85yKyJ36eG7o378/FixYgEAgYG8TQuD666/HlClTsHTpUuzatQvNzc1oaWlBY2MjvvrqKyxcuBDf+ta38Nxzz+GRRx7BjTfemFWyRjHBqJQUqiwghMBtt92G2bNngzGGAw88EEOHDsXzzz9vH8MYg2EYduJvJ7IDWXHrl156KR5++GHHPik0/H4/+vTpA03T0NjYiIaGBui6bkt7n8+HQCCAlStXYsiQIe2WgCHbY7er6C1oBaS+VV1djcGDByMWi6G+vh4DBgxIOrY9SK7anVXzVrbWoFJAPB7HggUL0K9fP9x2222Ix+MAEs8WjUZRV1dnbwOcnubq6mosWrSoZMySZWteJKtcQywWszOQduzY0d7NsiEnQIZhIB6LmxM5Q0CQAAiAMgnUNA1+vw9+nx/c1/42fsYYwuEwwuEwrrvuOhx//PH47W9/i3//+98Oqa0OXNnempoanHHGGbjhhhswePBgaJrWLs/gbhdgtrdsiC5d0oZhIBwO48ADD0QkEoGu6zjggAMghGjfSScBwhBobmk20wLjApnkOAODIIAB8AcCqKgMIRgKQeMcrJ1nT8FgEOPGjcP48ePx7rvv4rHHHsOqVavw9ddfQ9d1MMYQDAbRu3dvnHzyybj44osxaNCgkpz4M8bKR0eXr04igq7rMAzD8epUJ1Dy+KJIFQKELtDQ0ICWlpaM5HaCA8TAzMsADGBMoKKiAtXV1eA+lqQeFAtuWqhvKrlPmmy9+rkU1BYVJU10NVZDlRTZxG4Uo6OFEGhubEZjUyPIMEVzTp1JHIBKEgEwU8XRfD5UVlSgqksFwNuf6Lmik+hZwjAMh+lQLUXn1r/cr8u27mT5VmloaEBLUwSccTDzxkhNda82Mdd297mEisoKVHfrknjGIvGnk+hFgHxNcs6TyC1ts1KNaQ9vZywWw/Zt2wGDQePZqUdmE3Nvp2ACfr8f3Wtrofm05LHRiaxQckRXSS7VFk3TbNOiVzx5MYkeiUSwa9cuMD23SVdriA4Afr8PtbXd4fNpZezmaz+UVJelip/O1SbdFiAixONx7P56N8gwCSg/2Z2fHCPu9XGDEwcnDiMmsPvr3XZhoU7khnYjutS5JdRJpyS0GnTU3tlBRIT6+noYuoDZberHPgoAgTz0dMaYKdYZs9UPr+PSQY/p2L17T0lFB5YL2sWO7lZNgMSkUggBTdMcJiwJwzDaxxEhgD27GqBHDXDGTPGsgCC9odbkmQhg5vP4/X4EggHzmRgDARAkQIZAPBZzBqQRkq7tRjwSw769+1DRpRKcdyrr2aJddHS3KqIW9nebE9XB0F7OiMi+CHbuqIeP+WyZ7QlrM+McXbpUwu/3QQhrXsEZDIuXlgMDQpjho7quY9++fdB1HVpGTxHBgECvXr0QCPlLzrpRqmg3ostcT9WaIskuVZpS8LIJQ2DHtnoYcQOcuKmYMPccAuCMQQAIh03vJlNePAymJCc3J4X5LmCMwRAGopEoIi0t5gScpTGvcDN+vHuv7iXRR+WAdusltz6uaZrDZCiPaW+0tEQRjcVAMIlMHuRjzCRxRVUFghVhMB831RTrI5gHyS2YqgyBMY5wRTjt6hOJM4BoLIpYJJbh2E5IFIXoXoRNlREEJHT4UrAw7N3bAM64U10hOHw7TNNQ1bUagVAI4MzaRVl8nCAAwXAIFZUVIFslcR/PYBgEBg379u0rCWFQDmjTyajUvwE4HDtSchuGYcdLSHKrZPf7/W3ZvIyIReKIx3Rw4jA1c8N5AJkWFH8gAKZpJhVzIZ6XlOccgXAY8bhuBk85rJcEgIGDAwZDJBKD0Amav1NPz4Q2keiS4KqTxy151GAg1eICIG3WUDEg27qvqQnpnTymyhEKhwo+KQwrBftTwdB1RCORgt63o6IgbJLSWXV8qPZveYwX3OpKKaRfyTZFoulJRAT4/X5oMK0o5gdgJK3p+f/z+/3w+/1pLe2MMbS0tOQYSbZ/oiCqi7SYqPZxALbEVsNr5aRThZvspQCzvQYyue2DwaA5uLO4XkYw00IDAAIC4VAIsVgMLMWpnHPE4nEQyD6vE94oCNE1TbP1bbdTR9XRfT6ffZwX2UvJJizX/EkFAuAL+KH5fSCIlFYVCSY9opkuakEQgfk0DweVqaeDESDMXyGYM9q3E0komOqiBmM5bmBNNku1wE0qCCEyTiyZJu3qWV40NyMMCICW4g1nN80MosmyAfsvCiLR3YWCVD1dlegyxrwcoOu6aVIk8jSCEzNJSJTsQCoUmJWAYbjNrKql01KbyqNX2w8FMy+qlhVJbhm3IuF2BpUy6YUQICGzhrzFLbPc9STa5lmkuTJZYCds6uXwdiwF5Ky6SGnd3NxsV2RSS5Y1NDSYEyhLyu/YsQONjY2O4K1SJ3kuaE+ekecgKH1Iw8SuXbtsp6BhGNi0aVObOcFyJrphGHjttddw3HHH4Z577oFhGBBCQNd1PPjgg5gxY4adKHzVVVdh+vTpmDp1ql0Qp5wkEAEpLR4ALH2h7Z6HkTkpTXUPsvZRljHxpYJoNIqZM2di2rRpaGlpwc6dO3Heeefh+9//Pk488UT885//LPg9c1Zd1q9fjyuvvBKGYdgRd5xzrFixAvPmzcNrr72GHj164O2338aqVavwj3/8Ax999BF+97vf4cILL+wwkrxYSOF9sPeWkdyw8fjjj2PJkiV46623EAgE8Mgjj2DDhg1Yvnw5HnroIcyZMwcTJ04s6D1zJvqwYcPw9ttv46qrrgKR6djYs2cPrrjiCowcORIPP/wwfvrTn2Ljxo3o168fqqurccopp+C6667D3r17UVNT49DnDcPAihUrCvpQ6SDVpqOPPjqpREb5ITuh8cUXX2Dbtm1FFTKBQACjRo1yVEwTQmDbtm2YNWsWxowZg3nz5mHGjBn44IMPcNRRR0HTNFxwwQW48sor0dLSYi/HUwjkTHRZdkz1YN51110IBAK49NJL8fe//x2XX345jjvuOEf8ihACjY2NSYtARSIRfPDBB61/kiwhJ8gjR47MSPSsrYZtJVazumzmVm7evBlr1qwpqtoYCoVw1FFHJXnHr776ahxzzDG47LLL8Mc//hGzZs1CPB5Ht27dAMBerSQajSIYDLYf0dUkCCmZN2zYgJNOOgljx47FQQcdhJNOOglnn302NmzYgGg0iq+//hp1dXXo1atXUsMrKytx+eWXF+RhCgayPJRk/5l8iFXZQu4TWXwfbpU+4ykMitWFlI3mzYlgRrpnMOSffPLJOOWUUzI3sI0hJ5w/+tGPcOqpp6K6uhqXXnopJk6ciE8//RREhM8++ww1NTWoqqoq6L1zJroQAq+++iq2bNkCAFi5ciUmTJiA2bNnY/HixXjwwQcxYcIEnHDCCdi8eTMefPBBvPfeezjhhBOSJGhJ6uvW3I8RM4mUasJpxbNYbMv60uqx6lWZJLMrGth7lMkLCSs+Pn0DSiGsQqq55557Lp544gmEQiHMnz8fU6ZMwbhx47Bw4UI8/vjj+Mtf/oJzzz0XPp+voHFPOWcYxeNxPPzww9i7dy8YYxg6dCi+853v4N///jeefvppjBo1CmeddRbC4TC2bt2KBx54AL1798aUKVPQrVu30l/Q1iJ6875m7Ni2EzxF3RYCUFFVBV/Ab4YAFCB/k3mMmWhTM+IxNcGCwazwBRAJgAEHDuwLzVeCfemCLCX4yiuvYOnSpTjmmGMwfvx4+Hw+rFu3Do888ghGjBiBSZMmobKysqBm6JKr61IoZPNYnp2YA9HDlZXwBwIwuJCiPydkOoNTJqKboZLJRPf2lWaKIG1r5EI1d/Rra1E21XRzBRFh9+7dntsZM9fVzLuGus2jwssI9xWzjqNJukrixKamJkSj0ZRZXbW1taX5di0gOizRW1pa8Otf/xoRV2KCtATdfvvtSYvIekElh8N5RFL4m3HomSifVaUudxkNyuCwygKGYWDx4sVYsmSJJ5mJCHfffXcWuaqtR66DqZCDr8OqLkKItAtMhcNh70maS3VhSvkJlXQEIFRViUAoCAFDyfH0RnYl6VxZWAREm1ryUF1kkSXYFcbS5d+Gw+FOiV6u4JyjIot0tNbBqjlTKJIk6S1WppJjsDLlwFQyyjnhDwQCHcA51jp0WKIXA6YmzLyjG93HprQVOg9yHGGHuag6t2KCZKnjYDrhRCfRM8GlriTVIMpSic5KQ7QdVDLSM8VxSfds24j0jhBtWvZEV8N/cz0vUx1H8kj9Uf1DRGQVNcpi0kiZJb/M+0z8zBJZDDYZRp0rvHJ8yxFlTfT//Oc/ePPNN/P6Ir73ve+lJTrJFLVc0uQyoD0SmIkIy5Ytw9q1a/M6f9KkSbZ1qpwJX7ZEJyL4fD5UVFTk5eLO5kvLdp5pDoqcm5DV/RPJFalukPnenHNUVlbm1Qa/398hVJeyNS+mKpyfy/meEt3SVvY17cO2Lduhab6k/fIrD1RVwBcOmhn7bdCLnIBYs4dn1NWgfoMONJd98YCsuZNvue1yJ7hE2Ur0fJd2UUtWZwWRzGDbuKcUbMqEbNUWVY8vxNhhjHUuFY8yJjrQ/tLGkbOZyXKYD23L8l1bmihroqeCTL7dsGFDSmk7dOjQdl/GOxvIEnX2kKYsCiGp5xNh+/btaGxs9NwvhMBBBx1UEqG8bYkOSXTATMC9++67zdqEHvjDH/5QBM9pAUCwHEnJDqPsJtSEJUuW4PXXX08Z67JgwQI71qW935JthZwno+nqmqfal7Ne3ErIqmHRaDRJUkmdOhgMZjUZNZdz8e4if0UYWjhoV4grNBKT0SgSYjx5Mtp/cL+0k1EZB+7V/0IIR0BXW35H6ajmrrhc6HbklWEEwFGMSC0S6lXn3F1EtK0JzxiDpmkFkdjkNt+pGUKy3AS1b4nPTASSlXnbE2qtfHUbkEzqtqjDmVdydFNTE5599ln0798fY8aMse2sjY2NePDBB3HOOedg8ODB+OSTT/DMM8+gW7duOP/889GrV6+CNr4YcJOIKToyyXITrG3KTnheM8WgS32N3BrWVkJItmPp0qVYunQpANPr+rOf/QxNTU145plnsGHDBpx99tk4+uijC267z3kGous6Lr74YkybNg3vvPOO49X429/+FjfccAPWrVuHuro6HHfccejWrRvee+89XHjhhY7rqKa5tvjIt4u6IIG6PV8bvIwmVM9v62dJOI5cVdSzfIRcnrUQ7ZXXUSsSSyn94IMPYunSpWhsbLTLWcyYMQNPPvkkRo0ahdNOOw1r1qxpf4m+adMmDB8+3EEWxhiefvppvPXWWxgwYIA9ATrwwAMxbdo0nH/++TjkkEMQi8Uc+iARIRaL4f333y/cE2WJ4447Lu3rvDz8aM7Blmqy+eWXX2Lr1q1FfSa/349jjjnGbpcUiKtXr8ZFF12EU045BUcccQR0XccLL7yA5cuXY8CAAbj//vuxaNEiHHHEEQVtT85EHzRoEH7zm9/goosush/i008/xa233oonnngC55xzDhhj2Lp1K/r3749AIICePXsiHA5j06ZNGDZsmON6Qgi8++67BXugbCCEwKhRo1ITvaQND2SqTy4wxlIGMf73v//FqlWr2r5pCioqKnDsscc6Bp8QAocccgiWLFmCxx57DAcffDBuueUWCCEwcOBAAED//v2xffv2grcnLx1dtbIwxjBr1iz07dsXS5Yswe7du/HKK6+gb9++tu3WMAxEo1HPdK1QKIRrrrmmlY+RG7JZWaMc5Lm7kalWvhg7diy++c1vFqlRCbi9136/H4888ogtHI8//njMnDkThmFA13X4fD5EIpGC13QBWlFNV30NzpgxA+eddx4CgYC5po+mYfjw4airq8OePXvw3nvvobq6Gn379rXPkQOmWB/HQ2dj+SkL1SUzit3Pqfpccmbjxo0AgIaGBjDG0KdPHwwaNAjPP/88iAgff/wxRo8eXfB+yKtS13nnnYdVq1bh/fffh6ZpuPHGGwGYNV/uvvtujBs3DieeeCLOP/98jB07FvF4HLNnz0YsFnOUGSt154Sc/KXdTyJ1oaFW37/112gLU12+7YhEIvjRj36EhoYGAMDDDz+MHj164De/+Q1mzZqFOXPm4Nhjj8WkSZMKf/98HEbbtm0z18BkDOFwGN27dwdgEn3Xrl2orq5GMBiEEAJbt25FKBRCTU2NvcxLe3R8OkeX80DzR+PeRmzfssNc0zMFfBUh+MLB7BIv8gAnIB5pQTwac6oBZNs3AQb0G3IgfH5fzia5QpvwMt3LMAzEYjFs3boV3bp1Q01Njf297N69G42NjejTp4+tFRQSbRKmW2xPqNf9DcNAc3OzJ8GJCFVVVd5RfZZntKmxCdu2bG9fogOItjTDiMowXetN6CJ6/6H90hK9paUF8Xg8yfMoza1du3Ztl1iXYg60Nol1KYVXZUtLC2bOnJkU6yK/3Hvuuceu4JoKRDlkGLURSEl0yqcpQgg8++yz+PDDD9HU1GTrxjU1NQgGg9i+fTvuu+8+hMPhQjc9I4rJk7JNvMgEwzCwa9eulLbjnj17pq3r0tTYhK2bt0FLs66hryIEzZLobSEPGQHRln0wonEwANysnQvFNZtRogsh0NTUhFgsBiGEHfMin13XdfTp06ckhFNbosNGL2qaVpCQg7STUaW+SluIC3fVO2YRO5dbMcbSmuuKqT60Jzos0YsHGTPbBlf2sJMX8mZeJkDDMDpkRlLHe6LWwvruGWVWRpilSgi0Xc6oDTILzTlsmXKM5VeJ1BGXItERSQ60jWpZNLRmelGoqUm5TXHczr5czitnlPXwXbduHZYsWQIg9wTp73//+6lLQCTFnJcnpIVp6dKlWLduHSorK8E5RyQSQTweRzgchqZpaGpqckQaqjj//PNRXV1d5JYXHmVN9KqqKhx00EE5n8cYQzAYzHBUeRNc/dmnTx/b2uLz+cA5x759+8A5h9/vRzQaTXktn8+XlP1Tjuiw5sXWoqmhCVs2bU3rMPJXhMFCARBrOx09HmmxzYuJsed8ew0aNhDcn5wy6Ibbkef1Fkz1Zix360xZ6+jtDZM4bSwn5OQzhySLVLXQWxP3Us4kBzo40VO9rPKdkJUDhBAd1nLSGnTIHpGTMBkl5yY1EaFLly5Z6OnlB865I6sHcMa6uPtCCNG5hlEmpJKKpdBpkUgEt99+O5qamjz3/+Y3vykI0YngMG070bp+MPs38zUEEeCxJqck+9tvv40PPvjAXtzYfcwtt9xSlDWMvODmUFtxJ+/JaLrXvzsLSW4rJoQQdnyHFwKBQNpXfFNDEzZ/tSV99GI4BB4OgJiV10Pu0Kt8njnRp5yAeEszjFgs5WSXMYYBQwdA83O73+UbTf4di8Vs86E7gpExZicpFxtuDsm2t0UMfd4SvaGhAZxzO44iGo1ix44dCIfD6NGjBxhjMAwDW7dutfNGixqtlsGEWGgdncn/KGlr1iDPpE8GuThXYndi8MoYf0kaTdMcFhIhhF3Xxcvl314wDAP19fWoqamBz+dDPB7Htm3bUFVVhdra2oJbeXKejAoh8Omnn2LEiBG44447AJg64IQJE3D44YdjxIgRWLJkCeLxOH7+85/j0EMPxSGHHIJFixYhGo0WdNnrdMiU5lXY+Gul3IOjHEWOZSKkEcf+SB+/ACASP+VdXWTgnCeV9/AyJap90B6JMPF4HC+//DL69++PDRs2oLm5GZMnT8bIkSNx6KGHYunSpe0v0desWYNzzjnHERH3+OOPo3v37vjss8/wxz/+EXfeeSeICIsWLcKHH36ItWvXYvr06XaFgHJAe0g7WRXMDt4iM5LGPQFgjNsDQwoOSXJ1EKuT0lKyg69fvx6zZs2y27lw4UJs3LgRa9euxVNPPYVZs2YVvDJEzkQfMmQIFi9ejFtuucXuxKlTp2Ly5MmorKzE119/jT59+uCjjz7CoEGDMGjQIPTr1w/19fXYvXu3I3RW2nw//vjjgj5UJgghMHLkyIxl2liSKlJAeK0oZ6kmapVFU7ATYM0DCICmcVOjsaINQQTGuOONJSsdyITkXbt2Kc/V9oT3+XyetVlaWlpw9dVX44orrsD06dMhhMD777+Po48+Gr169cKFF16I6667DpFIxFY9C9HenIkeDocxYsQIxysxFArB5/Ph3XffxSuvvILFixfjX//6F6qrq8GYWeYgFAqhpaUlqdGxWAxPPfVUqx8kW0jpdthhh6UvYJT1BROS2ONmydskwbO6gZVeZI0AQQJ+fwCcMxCZhNc0zSQ1JXR1td4lEeGjjz7CsmXLsn2igqBLly4YMWKEQ0U0DAM33ngjamtrMXHiRFx55ZVobGxEc3MFPHQYAAAgAElEQVQzevfuDc45unTpAsMwEIlEEAgECjYocyJ6Orfyu+++i+9+97tYvnw5Bg8ejFWrVqGurg66riMSiaC5uRl9+/ZNeoVWVFTg5ptvbuVjZA/VGpEWWaouecQBevydJrmDWSWjpVTnDJFIFGBAKBiCruvgyspxquXFfAzCxIkTceaZZ9rXLKYKo3ImFovh6aefxvbt2/Hss89CCIFvfetb+MEPfoD169eDiLBp0yZ06dKl4AuE5UR02YGvvPIKduzYAQD48MMPsWPHDlx00UUYM2YM7rvvPhx44IEYP3489uzZgwULFmD16tU47rjjkiaA7aEz5ppdno2ubk8kk3d4bXT9nvr6ggACBxgHgaBxDph8RzAYNGteClN1cRdlkn3b3l5S9c0SDAaxfPlyCCEQj8cxZMgQvPjiizAMA5MnT8ajjz6Kxx57DGeffXb7T0YZY1i2bBkOO+wwMMbwySefAACmTp0KwJxR7927F8OGDcMLL7yARx99FAMGDMDcuXNLpsZItrBzo1MmYVh2c1K16lzgPI8gwBmHEGotc3P1PQaCMHRw5kMwGIKux2EYwqyLXib9yhizzcy6ruPnP/85hgwZgtraWjz00ENYtGgRTj75ZPz0pz8t/L3zqetS6p2qOiLStTWdXblxTyO2bt4OJrxJTiD4K0Jm9KIsBEdATmRniTZK64nPpyEWi4NzBkYEocehGaYEJMNAKBiyJqgCAANjQJ/+feEPJdvJs4XbadMRkZdELyfkG6bAiFsr0qWQ5kSmpCdm6hL5WGesN4EgAgMH16RuTRCCEPD5wEiACXNSysDMpRg5h8+ngQh2nHm658kU3NbR1y8COmhQF2CasebMmZOUVCDfSDfddBNqa2szX8hNEtsFau1GK2zutrmcwDhzSHZN02AYBoRhwMfMMszxaMwkpxCIxYTzIimbT3ZJ71S47bbbOmSAm4oOmXgh7cs7d+70DBoiIvTq1StpoqYe27R7H7Zs2gKQz3W+mRQtyFRdEPSbQr0VvShd/5rGoGkcwhBgnMGIxxGLtCAADh/j0PU44rEYmMaRGGyEQcMGwx/yNpUKIbBnzx5EIpGU+/v06ZO0TE9HQ4eU6IyZaxj17t271dficIYsCGLgMM1+nDHo3BT63NbPzfXjbGuD2i57gwxaMT+cAYIMCJ2gMQaN+2DoOiBMs2IkGkOF3w/4NPjJD12oYQBIq3owxtCtW7cOmzmULTok0YHCSSZGTqIzxsAFA/mAqkgL4gyIagxRnw86BzQhwAlg3PReqmdzwDQFGgIMgMb8YNAgyABBB+cM4H4IAMxHENARihtoERx6JA6qCoATS2hTWfidMunv+wPJgTIner5aV7Zfbqp4cGGpKk2ffoTQpo0IC6C2uhsQNvNHwTjArYmmel9r0JAhUBGqgL43Ah4VYCRgiDgECZBlYw5XVMDn82Hj0GHw9+oLBgPRWAx+w7NJWTxH/ugIg6FsiZ7OhOj1xaphqzIAKp3zKB05hHW7UNM+9NxWj2iAAL8OQ6sEmAY1YEXegROB6VbdQ38Q1LIXDDp0igKRFnA9Bk3XwXUBLRoDGgOIde2GKj2GvX4BLW6qR5wAo5PoOaNsiQ4AX3zxRc4xHDIE4IILLsirBrcMrOIEBAwBjWLwEYMOZrnqYZPc7w+ASMAQAj7ug0AMAAPzaWAEcIPAdQITDMyAHahIBECPgTfshi++DzEeR5j8pkqUc4uB5cuXY926dXmcCUyePBkVFRVlT/Y2IXq2EqQ1nccYQ2VlJQ444ICcCMs5h2EYKQv2qPBa70J9NgIgOEGHAJEGkGbx3PwnDII/EASHgBGLQauoAlmBV0ZcBw8HwQMaxD6CsbcZjAPMIDAS4AIwRDOMlhZoBiHOAU0wCDkQlEYIRilr/sr653379s2rv8ud4BJlLdF79+6N3r1750R0d3GfzCe4/mamNBcMMMBgAIAgS/926vTCMEAkEI3FEaqotM2QIhoFNTaBNA0iHAQCfkDzgYwYuGE6iBiEeS8DCMc5IlL1sl4pTG1QGjDGMHz4cBxyyCGdRC9X5BM7k654T9bXsD4GWdoGETQIMGtdOABgRABnMHQd/lDIOV7sbCICBMFoiUCrrALFdgFWlhKI7MOEzEm1kDAmEjyXZ1duxsCgcS3R8P0UZU30dnVdSxLCIjW4/AtyrRcS5haucZN7ug4SAswfAKsCGATIMMAiUVDX6kT2nPWLfOmQB0MZkXmPbD1V+zHJgTInejoQEfbs2ZPSApPVuj0pOCRgqS+KDs+ZcGsu5iUYA8Bh7NsLRKNm+FcoDK6ZsTQiGgfvVg1GDKT5QRS3Bo7VVgH4DQaDu69NnvfzQnNTM6LxGEgxdqrhszU1NR1GRUmFDkl0IsK+ffswb968lK7vG2+8MWOVWDPB2b3NhGaYZNcIpp5uHWjJbggG+AIhxA0DGgR03YBPWJlCehxawA89poNIgMMPbk2QGXO+HRgxcEpa1MWGKdAVa727vQbhlVdfwTvvvpN0soyr+e1vf9vhY13yWmcUyM3p0h7SIhQK2eufukFEWSUkpHIY2Q58AjRhWj0MS7e2j2YaGOcgYQAM8IXCIEOAgYH7fCDdgBGLwh8Kgek6KBYDhLClOSeT5IIx26xISgOY0pa0YAxnnDERE06fkGRDkt9NIBDI2BeFhJq0rXKjLbmSM9Hlgk9vvfUWamtrMWrUKBiGgc8//xz/+te/MHr0aJxyyinw+/2or6/HE088gT59+uC0005DKBTKmJBcCDDG0hK5UHFsDKZUZ0RmtazEHaD5/dDjMfg0HygaB/w++Lp2BRcEIXQ0721EuDJs6fkEvaXZiqsREETggkBI1GuRpTQAc4DZpM0UbswBjXNoLFlNK2Y8n3yGvXv34sUXX8SOHTtw1llnoV+/fohGo3jppZdQV1eHSZMmoW/fvgVfZzSv2dwVV1yBiRMn4tlnnwURYenSpZg4cSJCoRAuv/xy3Hvvvdi8eTOOO+44fP3113jssccwbdo0+4HbGwXLdCKAC+/nEZEWIB6HiMchWpphCB0GM6se6E3NCHXtCsE4SAhEmprADR0wDNNUaebQOXR163aWkuKKv2n/Ls0Kuq7jggsuwNNPP42dO3fimGOOwebNm/H//t//w4IFC+Dz+TBmzJi8nVvpkLNEX79+PRhjOOWUU+xR98ADD+C0007D5ZdfjiOOOAI//elP0aNHDwghMGvWLOzcuRNHHXUUDMNwSPT2Jn02ZE9yGAGJShWWJOdCeRb7hxXFGIuBMYDvbQIxbmbyhyvMtLjGZlAsCi0eN2snkgEiw5J+MovI1WbrBs73h6LYyGfyaHiqFfba6nvwSuo47bTTMGXKFMTjcdxxxx1oamrCokWL8Pbbb2PIkCF45plnsHjxYhx22GEFbUvOVQCGDRuGP/3pT/jhD39oE2Xbtm0YNWoUAOD444/Hl19+iY0bN2LgwIEIhULo378//H4/tm3bhkGDBjmuZxgG6urqCvhI6SF1w0GDBmWXOOxV+QDSvg0Y0h5o/WCSTqZ+Yca4WBNGoevgQoD2RUBkJlVwQ4AZAhDmxJSZoty6ryuZ3L67G/I47znFrp27sGdvg8Pq0tbgnGPgwIH233Iu8POf/xzvvfcerrvuOpx00kkIh8MwDANDhw4FYwwDBw7Ehg0bCt6evK0u6kjlnNvF5yORCPx+P4LBoD2rJyJEo1HP1Ymj0ShuueWWfJuRM6Tacuutt6KmpqZV15J6sx1ZLjloeUBtytn885acDMKyn0uDJSknZmxFxiNefvllvP7G66ZJs0gIV4TNkoXWs6tBeKNGjcbcuXMx7tvjsHnTZsSszCnOzaQTX7DwxsC8r6jWUDz88MOxfPlyAMDDDz+MY445BiNGjMBtt92GhoYGrFmzBl26dEGPHj0cM2vGGCoqKnDXXXe18jFyQ6EsDcRSydAc20OAVCxIABCyjFyinFxiMkoubrOMVD9vyhRMmjSpla3MHRqzJpTW5GJfUzPOPuss/PWhh3DowYcCxBDwBTCg3wA8/4/ncfoZZ+DTNWtx2WWXFbwtOdd1EULgiiuuwIcffmgTeMaMGfjBD36A8ePHY9OmTbj77rtx7LHH4tRTT8XEiROxd+9ezJw507OgpVr1tpCmpUx6Z6Z7EZOEcktBVeLm0iDX/Un9aV5TEANIrl5auL7QfByar7gmRDcYGELBIA4ePhyTzj0X/kAAp40bh0MOOQTXXncdrr/+eixYsAAD+vfHpEnnFv7+ueaMCiGwZcsWO/ovHA6je/fuiEaj2LhxI3r37m2XohNC4Msvv0RFRQX69Olj3jCPbPVckZHEKey1dsAXE2j4ei+2frkN3LOmC8EngPD776HnZ6sB6KB+ByJW3QV2DRhG4GDgRIBBIGYmVZAg8LgADANMGGCGDjLiID0GoetgsTgQM8DBYDBC09FjoB8yGs0+AlmxvA4rC2MYPGIY/AEOK4BYNjE/tKHLQ/Z7XV0dDMPAkMFDrB1A/U6zNuegwYPNOjaFtS7mV+6ib9++jm2yCtOwYcMcUptzjsGDB2cdSFUsx1J21hapU7reQIoWTUkxs+kuKE2G8jqqVCelWJLlXSWvCJfyhux3e5KqTEW6d++O2u7drXzbwt87Lx3dS/1QTUnq/vbILpc6ra7raS0rrQ0KYwSz9ksWlzHL1ll1VIRlI1e2kRXJqBGZUp+sOYCXjq4G6WYYaEbcyOx8kbPp9gKDWe6jsBqbAwWb3qZywrRXsFBzczPmzZuH5ubmpPYIIXDTTTelXjk6S9jkTX2E9b8saEGW9JbmyATR5e8Q1kCA5fb3ILrao5ShfzW/hsVPL8byFSucbx/GQGSuYPerm36FQKgddXjm+tkG6JBBXbKU9bRp0zwziQzDyLg4lTlAGdxeSBNWOC4IBFPvBiwd1D7GtJoIaUcXZva+KYGVvDmY+5klyYmswcASw8T5yR3/O/ZUHH/C8clEspxI/qBF8o6mKynosCXpfD4fDjjggLzOddLJg+hMAPABLA4wHYbg5qRTPctyFskAcwZpUQHADIARBMwgLk5keUaFOXBgpvoLW5HPg+jK11RT2w1At+zPzQCvolB5oYhU6vhF99oEUhonpLI3nGqNQ+Ugr23mtYiEYi533atcAltKDB1SdSkU1IhBx3a4FtnKJGnV3VI/t8MGEuoKlGulXkWjcGbY/QmdRM+IzDb5dGe5JTZTyO3+SdZk1To4yQOa+Ol+ETPl49XItI+QfIsOiLIm+n/+8x8sW7YsJx2RMYZoNIoLL7wwy6wajxmc/M0VJy4no7YZUCjWFZE4XxJeWCTnigVGDgTGTOuLEIn4F3OCStByFOjvLV+Bzz//PK83waRJ57TaOlUKKGui+/1+xzKQ2SIcDufwpbulp7PAp5TIZomKhFauOoYkpGPIPNn8j9nXkANHgAnLqmORXYfbqJg9hEEI5NlPQPkYHzKhrIk+cOBADBw4MKcvQ42iKxiEW83wvHFiLmmZ9ZhQBgqpUeUFJBdjGDV6NEYfNTrPC3SM+UBZEz3fgjytk1JO7VvWYLEnlxkvnXAYqYcrFWEc95Jvhnzp1vqKIKljgsoJZU30dGhN9GJarhKzDpAhqE67jJoCYbfDFbeSkNwJtYdg6exCmOoLyapc8g1kLiOT6xi1zZgdQwPJGx2S6ETmcoS7d+9Oub+2tjZtDAgj7m1eJNN1ToKbFhIrboURzFxPWwQnJqSMhEVYAZeSrtxPHk6KFGfS9wqDGDTSACaSB3FqMz6IgKampqQlbuz7Moba2lp7IGQzIMpRb++QRAfMTKfbb789KdYFML+om2++Of0EjQBmS2/H2fZvnMzk6FQJaqapUFjWGEUHIbIX4AIZ5seitWo8ZFCK/tvtSnpnpH4GmMR98cUX8c4776Q8xlzDqH3j1dsabUJ0IZxSR+rFxQzDraysbEWKnllTJRNkvXL5u1M9ka5/s2AoWf/kUjHkXipdiWCUfSdAECxRj93dRutC6R4DDMB5530X55333YzPU2x41QiSxoJClxssCNFlkrMMi1XLncnC+4Wu09GWYJQd0dPDKXHtYC2yKuWqf9vS3VRhuLBW1Sg/DSEjJFeICJq1tLv8WxK8LQRiQYbN66+/jm9/+9s4/fTT8cMf/hANDQ3YunUrzjnnHJx00kmYNGkSNm7caD9QqSAbU2O6Lk9U0JLBWDImRdgOINhrDnHbriIdRiS9pLACukg47PKQ6yERrNXwZHKGu1WlH7IkCX7vvffi5JNPxoknnojrr78esVgMb7zxBr75zW/ixBNPxDXXXJNyPtEaFKSH5s+fj//93//F4sWL8eabb+Kdd97Bgw8+iKamJrz44ouoqanBTTfd1DY27DaGUOPBU7bfIrhFVPUY81dmH0aKk8is2yIsS4viGYUl2S1rDaPEx9qL1Mu2ly4ikQjuu+8+zJ07F/Pnz8edd96JzZs344YbbsC5556Lf/7zn/jXv/6F5557ruD3Lojq0rNnT6xfvx6ff/45dF1HbW0tXnjhBVx77bXo2rUrzjjjDMyZMwdA8oxd1/Wi1nWRJBw8eHDeemAS8WUOnMpGt2FE6qOk/i7FesIMSUK4zk2QXd0GK+w3UzQjEbBzRz0aG/dmYYun5IbnCXcaJWB6pFeuXAnGGD799FMAZoLM2rVr8eMf/xihUAhHHnkkli1bhilTphSkHRIFIfrhhx+OBQsWYM+ePQiFQujevTsaGxvt0szV1dWeVW1lvZf/+7//K0QzsoKcFF955ZV5ucVNKlBi8khJBsgU4GAUT1yHjISziJTB4ZrUyjADO2ISsFSXLKwu1jj697//jVUfrMribVo4oldUVGD69OmObbImZmNjI2bOnIlf/epXqK2tBecc4XAYjDFUV1ejsbHRc6LaGhSE6H/+85+xYMECTJgwAePGjcNTTz2FAQMG4LPPPsOYMWOwadOmlMuRV1RU4IYbbihEM7KCtAi1qgOdxhJ4lZeW+2Q6XEJ9sb5AuV26/klGLiYGT/ah58r1XWAMGHfaOHxn/GlFndx6DSoiQnNzMy655BKMHj0a06dPRzweB2MMO3fuRM+ePbF161YcddRRBW9PQRS9nj17YsmSJVixYgU2bNiAPn36YMqUKZg/fz5ef/11PPLII5gwYUKSqqCaHYv14Zzbn0wmT7eklexmjCXyOUGAkTCnEpkpcaajyAr2ImlTty9s7reu7QiwVe3sIsWcgInEB9zMWPKCZbnhPHePamvh7nf59j7vvPOwadMmDBkyBA8//DAikQi++c1v4pprrsFLL72ETz/9FN/5zncK3p6CSPQnnngC1113HX75y1/i6quvxoUXXghN07Bv3z7cdNNNmDRpEq688sqS8ajlGgTmONf1NxGBk25JeSVaRTEbmi5+grnWC8FahytRLkMeZ5E8EcnYuue021wa3Y5oNApN09CjRw88++yzYIxh7NixuPfee3HDDTfg5ptvxmOPPYZjjz224PfOuYCRF9SJmVtqG0ai3EIpEF3a9qV0d++TaKxvQt36jXAvhcWIg/g+aPEqdHnneXT75N/QRBz84EMR7V5jHQMwa3U5WQbadAbFgbgOZsQBXYB0HYjHweIxQI+bCwJEdWi6AAHQObDn5G8hesTRiPh94EQe/iGOg0YNgT9Q+k5u1SLlxQXpc0m1vzUoSO+kUwGyqljbRjCXSnG2S+rohXBgyS8ut69EDibTQyrfEAyyVDTZKjfzOi0PGAZ5zksSDpriSP1MqmJbOhVLXwzkiZaWFtx6662IxWKO7XJB3WuvvTbjGkbZgsHSlW1x6zERQ0I9SSRBS6eS/Jh2dYMJcGKOAgRqGEDCgumaPKTA888/j6VLlya/wYQAGMNNN92EUHvWdSkCOizRfT4ffvKTnyTp2IZhgHOed8aNF2zCAkjtS7WcSl6mFMVJRGRAMAInnkixg1wBzzQrampYQRai/qSTTsI3vvGNpO2yInKx1zBqD3RIohOZi3H17NkzpR5e2Mq93vSWRj/TG2oVOiJhFSsSgDCsfYbDJi9Um7kN7/Zmo9HUdHPWdHH3QQlMndocHZLo8gv00vlyJXhy7LdXKAA5dGsZhWirI5RQLwjCVc1L2tSd15ZEL0TIhHudLo+1pjs8yi9gooRA1n9uKkpKQ5oIVTWaYBNYJbe8WOa4mk7kg7KV6En27SwltTtENNM9vKSfXRdREJghQIYAtx1AljRPug4AkCs4S2k/mD0Y1P024S0Jz6WTqohotSe5BFC2RGeMYf369Xj//ffzcgCdeeaZnmsquQ5OUmAJpgWEMzO7SJOmO0lgSvxtHm/WUpQBXPZgUD2gBDAyrEEirI/zTZHayZ8ZH324Gus+/zyvcydM+A4qKyvLnuxlS3TAlM4NDQ05FzACctB9PYNYMuxHIgdUVWOkCpNQTQCT0Ya1z5ywCiII4eUcyg+NTU3YvXt3XtGahiHKmuCAZZxo70bkCyJzKchhw4bldX62X14SjRXVIdNQYbZybpWbs+S7LdUhIEDgMC0tciU7x4p2WSO1zP+f/zkR//M/J+Z8xY6EsiV6Nvp10aEOAiuSlgNmboUl1BNJFwCpiRpW9KIGBgYGLoeJsj81++WAKm/JW2ioHChbogOpyV4MkssMISKCIGFNEhNOTkFm3XNOcKTEmXq5zFyCpZ+b2UlckDmxJQDMNEMadqJ5ov6LE2YFgeT25fdcZa6l2JDhH5IjZU30dBBC4KuvvkoivfQGDhgwIG+PoNsEmAjnpcTHPtj8wYlDkAFurR1q29cFAOLWytFkr3pBViiwfa1UxM0iaH3Xrq+xd+9e90OYNWQYw6BBg8B5B2E44AgulAF8HZbokUgE8+fPR0tLi+f+W265JWUyiAovh1EC5npIbo1BavAOtcPz2gk9nqwN8h8jFGwy+vLLL+ON199wpS4BggQYGO76410IhbKpLFw+cPshOizRKyoqcOuttyZtlw+fTcno1mhApJBWTkadFhdru2JqNLVsa4HHrEieXQMnT56Mc889N/lw6x7BDhzrwjkvnNVFkkcIgWg0Cr/fD03TIIRAJBKBXB06GydNISDv4UVmme2S7Vqj6dzljhQ5O5vCcQHFK2pGJhKErX8nJq+S+AKMBDRSJrSO1ljhjKQkeAAgYnA7ueXjmXE/HD5fOtOi8y3V1jAMA7FYzF4wTQiBeDyOSCSC6upq26GXCqnmYFItBeDIN2CMFTYE4IMPPsCYMWPw2WefgYiwePFijB07FqeeempRE6CB1Gl6cl8mEGWe1NoVABLeIvP60sOpfKRVhQlY64zKSl+JMhlm6Wjrp2cIQOIe9l+pNaOSA5G59utf//pXnHrqqfabbeXKlTjttNMwduxYzJ492zORPh2EEHbShiS3O8mjYBJ9x44dOP300/HHP/4RI0aMwH//+1/8+Mc/xptvvgnDMDB+/HhMnjw5szeyjaGSJyPhU1nsSP3FUqYJcGbnW/dw3VtNs5OLcjEwm9hSV086OWND0+wtEa+mXN/1sccec+QJTJ8+Heeffz6mTZuGI444AsOHD8fUqVOzuqZKZinRvSJWCybRp0+fjt69e2Pbtm3YsWMHPvvsM1RVVeHggw/GUUcdhYEDB+LVV191EM3LelGMj2EYjtdcOiSfr6oKAmBRgPwANCtZ2dtKknjuRNwLYHFZCNvUSEI47tda5HqtQve1el3GGE4//XQ8/vjjAMwc0kgkgtWrV2PatGkIhUIYPXo0Vq5cmXVb1fQ7IEF4d1W4gkj0N954A2+++SZmzJiB1atXY+HChbjqqqvMG1ipdNXV1aivr0+SLNFoFPfff38hmpEV5MP/5Cc/yUIPTCXSZccKEHSAfACLgYjDYqtZFddUu61KAGStWYSEJYYsqc6EFeti5opKi4s9T4WyiFcegvmtt97C6tWrcz+xFaioqMAll1ziqKVIRDj++OPx3//+F4A5h9q+fTtCoZCtr1dXV3tWQHZDmg3l9ykHkvzp5llBiP7+++/juOOOwy9+8QsQEfr27YuWlhbouo7GxkZUVVVh27ZtGDp0aNJrlHOOgw8+uBDNyAmteZUn1HICMwgGGVYSNBIElqtAy+mmamVBwnkEIjNKjAASBG5XDjDjyE0Vx3pZgCA4clLKiQg9evQoeh8HAoGkPvYyBNTUmAnl9fX1qK2txY4dO3DEEUc4znOrJKq6wjm3pbpKfrcQKwjRjz/+eNx///1Ys2YN3nrrLdTU1GDChAmYPn06nn/+eUQiETQ1NeGkk05KOtfv9+O0004rRDMKCqkvew0HOZFkkoAiMZm0zYXKdeB+lduSHZAyO1FRV5HeAtAEJSR6HmNTCIHDDz8chx9+eO4ntwLuQlGSgE1NTdiyZQuEEKirq0Pfvn1x8skn48Ybb8Tll1+O999/H7/4xS8c15EkBhKqlcz91TTNsU3ey42C6OgnnHACfv/732P27NlYvXo1nn32WfTq1QvLly/Hyy+/jHfeeQeLFi3KmAVebvCMK08jbEmxo0MZGMyeLySfrGU3lUgJqTq2V6Eo9fsWQmDFihV49NFHMX78eNx6663YsWMH7rnnHoRCIfzqV7/CAw88gJNOOslBXlVSy9+BhI1cVY3ctfklClLXJVXhf3lz+dPrwduT+F7lHyT2bN+LL//zpUddFw3CF0UoVomqVxeh9sN3oQsfgkeOgNG9DyCEFcdiQBMCzDCAeAxCGBCGAU03wOJxsFjc3K5HwXUdIhKFiMfB44apvjAGwYCGUydiz7HHQ3Bzsmtws7aMikO+cTCCZeDZ9Jo8uiE5oX43coIpt8kEd3W7l5qkouB1Xdw6WCrbdSEsCsVAsoS23DZkrWIhBDK7IxKBvWRbXazrW8u3JMJzyXEGk+oNkW3FzEU0SMlYCm/TVJYulTOpktnV2BW3uiKvm+75CkZ0r98lZCSZ25iv6lWFhDQhbuuEpt8AACAASURBVNq0KalzpXNh8ODB8Pv9OV+bkRkvKFOAhDAcK9ElvJVkx+baajuRqc8LM9lCLvZl5l4IMGFW2CVrdNkBXvLCqtXG8cCp2yuEQH19PRobGz2/G8YYBg4cWJQVSVLdI6uURkWQSmku+0HTNFvKp0Kbx7qoZFYnD+pIbAvE43E8/fTTKb1sM2fOzOu6JhEtE6CUukJYVpE051nWSjOlTtgOIwbL6GLp6kIkVL2017La4r2+UQKcc6xatQoffPCB5zWJCLNmzSqJpXcMwxQhXm2RKooktQwnkepQpva3KdFVya1pWhK520KaA6aECIfDjtl7m0CqHCJBermDA5Y737SNc9t7byVVcAZi1gcJ56rq+s9GveOZD8H48eMxfvz4HB+uuJAOHvcE060WSy6pZM9GJWuzcheysV6TBtVUJFWJtpTu+SBd5zFLFRFSWbEJaemTUnKr5wDg1tSWGDeHAuPWDmZeRrGzK5dLQirvY67P0R6gFANZVW1TcUFK8Hw0gjaR6PIBdF23G8gYs0eh2+RVqrD1Y9c2JggGU+zjQjf1a5FYdItbKgpZUtw6OTEoOANpHNCtbZxDg7quKHnz3LLhq5GNpduDyZBqhtSp3fM3IDHH8lJHVILnohG0qeoiG6qahlTzkq7rjsa2lSqTN1IIS6kb2wX+CaYrX5hpbVwIMDjzQWGVoJPWE7N+v6m2MIPMDWDWNSxJnEZYFzIxo5hQSe7WrVUCyzBvL07kw5OiJV647efyYVpjeYnFYjmHdMr7d+3atdVvE0l0UuJxbQuJ5dFMvKYtSUxmXDkRgcWj5sGcgcPM9iFBSlx7wtgoJbzK/eRYyWQQmcup6Lqe1/NWVlba31Oh3r5SBXF/76rqolroCnHfNiW6Wy9XJxrq3/li5cqVePTRRwFkb5eXnfz73/8+77LR7m63o3SRkLLSGijbxqyZq+AMTCdA10FCQJMFdgUzrS5EVh0Ay+IuzZPSns68WuBqj3KEEAL/+Mc/8MYbb+T1rHPnzkWPHj3yOjcT3ARW1RhVly9ZonuZfFS9Sz5AJi9ZJhx77LEYPXp0ToNFEj2bVLpU4JbYdkwKGeyIQ0Cdn8oNpsmckxmoJQSBMQ4YcUCPQxOAsMxrRKZnVC6nbl8gKxme/Lxnn302zjrrrLyESjAYTPJMthZSNwecizW41RiVK61FQVPp1N99Pl9SXIK0rqTyguUKv9+fl9MnF7g72iAAwoBBZrKEZhDiJLOCEpLUVGus1DkYADMnptwgMMGgkaWmkGEGdOlxe8AAUlFhADMA8gMsAlAYQAuIEs+ciQacczsEtjUoxPxJjVWRxgm3E1G1ymXj8cwWBZXoqulH1cG8CF9yE888oBYMlSRPNiqatnRBCS8pg7ASLIS5op0gCMN0FjkHlmm5ATQABog0EAwQ89tXz4S0jqd2sHi5Y58kud0kl9K9pCS6Cjla3Q1U/y4mydv6i2aKQpyIS4FtbTHvr+gzJEMASPmpQxZDSmq/NaE1f8otyv4sHiFVH6g6cDFIr6opqn9Fna+pArKQ8VAFI7rqBFJfTaqHq5hOoVgshsWLFyMWizm+RNmR5557bqvzV8n088Bv2Il1mc6AKeGRyOi3g7csy4okH0mdX05GnfvhODvNHYmwatUqfPbZZ5774/E4vve97xVleRc1GMsrmVmd1xU6FqrVRE8VYC9/V48DCmcuSgfZSX6/37OjvN44Hlex7B6p22p+OWSqE5SQvGoWv1x6kVmVucw3gNU/1j3M3wFuqypW8Bhz9pc9v2Xp497dbeSce2b8AOY8p1gqjGqBk8YJlTfqd5VN/EouKGj0IhEhEonA5/PB7/fbNlzAzCEsJvx+PyZOnJj38o+qxpHuGBIEYkpCs7WDq+cLxW0P03sqbYayxIUM32XCMrGRaXMxTZPJTVHJ7t7npu3IkSMxatSolIQutq4ej8fR1NSE6urqJLVJDuxCB5m1+r2g6lZ79uzBlClT8Oyzz0IIgddeew3f/e53MXnyZDz33HNFU11k57XnGqc2FDMjSf3cily0P8IACcOW5u5YFnLp5Tay4KdXpk97QQiB5uZmXHjhhRg9ejQmTZpk17dXP22BgihAsrzADTfcgPXr1yMWi+Grr77C1KlTMXv2bMyePRvz5s3LKru7UPBK78qnQ5NIJ703KVUfSnGetME4twsZDyPVIPe9kPpW2WgvheqH1kJOOq+44gpUVlZi6dKliEajuPPOOz3bWWjkTHQ5aVDT5xhjWLRoETZs2ICxY8ciGAxi7dq1CAQCGDFiBEaPHg1N07Bs2bKCP0A+yCbqLyWYqWQQ1AkiSyKjjApQ7gq4sotIsdDY18r+IZzqUsrDsotyLAZ0XceKFSswbtw49O7dG7/+9a+xcOHCorzpc3q3q7Nl9fdPPvkETz75JB544AHcddddiMfjdkaLrLno9/uxZcuWJH2subkZCxYsAFAcXZExBl3XMWPGDFRWVuZ5FQ2q5LbYan1g/pSTLIW8pNjdiRQzpDxCAEwoEs2Dm7aUd/6XEkSEV155BatWrcrrSfNFRUUFfvaznyVNMFtaWtClSxcwxtCrVy/U19cXZRBmTXQpFTRNswOEpPPnjjvuwNatWzFt2jT85z//waJFi3DRRRdB13VEo1GEQiFs3brVs7ZIMBjElClT7Hu0NeRsP39zGgGkEB22HTAxaZROJCRUFceyLUItb5FwPCUGRHqVxVz1jhzHpsPo0aMxZMiQvJ42X6SKOgyHw9i9ezcAYP369ejXr19RspuyIrrsTBmj4M7Zmz9/PpqbmyGEwMyZM3Hsscdi8uTJmD9/Pp588knouo5IJIJvfOMbSaZIn8+HoUOHttHjeT9LYUycCT2dKWTllIhShO0ESkhvdUlzyVGpo5MgJ7vTcDhb8yJjDD179kTPnj2LPiF1f9fSEvbnP/8ZBx10EK666ipceeWVRTE5ZyS6av9Wyz6r+nltbS1qa2shhMCpp56K4cOHo1+/fnjxxRfxhz/8AQBw3333tXlcSjbIbbKjuD09tkk93Z1NZO4kW7ybE1FynC2DbhPBty7bCqXledZoT2uL+96cc9xwww34wx/+gFtuuQVTp07F97///aK00UF0r9JfQgg7QEuNS1ClvPogP/nJT+xzjz76aDz++OMOr1cpmLmyhbSUeOyBZRx36tjKxJJA4CAIslIqpN3cykJilrmRCbmuaMK2bt9CVe4TP8z7QgkgK8iQaHswxlBZWYnrr7/e/rtYk2Sb6O54AwC2V02tlJTJJuu1z+31KhYydaK7re6/01s0TI8oyLDs4QZIzSryaEtCdZF2dLJs55ZFhhJinEFN1HBOWu2YGisLKZMak8nqoj53Wwsi9xu1WILPJrp7dLmTJtRgLVXPLaYtNhfouo6NGzfacc9u9O/fv9XhqyYvXXq1uk+xuzNluyKarW3KxNTaI/V97/tKtTE79Wbnzp1oaGjwJDtjDIMHDy6JchdtCYfqogZeSUmuSnUpzUuR2CrkkjKLFi3yTLVjjGHGjBmtj9OW9dCZSBarFnkTA0FKdLk7MUFNDAZyXIZnUyvGA6paI4TAypUr09Ycv/baa/cvoqvRYlKndpO9XDokFArhmmuuaXOVKXkymjA7OszclNifSo0gK/PIDQZAgAMwkuouJo5wXUvZmqmuS6kLrkIgieheM2XVhl4OSRPqPKJNv0SlqlaCvJZNhRIqBgmyJ6O2qk0JnVza1onMxbokCAyG0AEGCGIAdJDgEMys9yhAABkQ7kKoyu/ugkD7K5LMi1Ifd6srAFLW2ihFFOOL5QRztWd7RRcP55Bsj21nJ0AQDEGAUO3uSJDfgumHMktoCADcluhuqZ/+Wfd3kgOuyaj86dbTJdlLieSqFM1l3qCaSbN7M6UmlUamHi3INCXqinrCLH1cejztxbhsM6P1DILsiEYAINUiYSkt7pQOIjvCoBNZImkyCsBhUizVVx9jDPF4PCmDKBMk2bKNj3er08z5HwBFIsutpB5vxqbbJkJLctuTVDkptdQdSXj7Qmpiah4gIsRisZTWp0wIhULFUQPbGL50pb9UR08pYtmyZXjggQdymjPIQXvPPfegqqoq53uaOUdmZr7UreGeQNocpsRAkbHmlg1RQNXbpf1dmHZ2azxkqpSbDQzDwOOPP47XXnstL6LOnz/fXmeonOFLV4Wp1NQVFUSEUaNGYe7cuQCylzZS3cm7rgsxENMBCtpi3GEytAOuEs6dhLNHdQ6ZvzN7m/VT9WUwwC4YYyXbqdfOJvyWc47TTz8dY8eOzetxZRZQucMHOCeg5YSqqio75DMXtN7trFhGiOyiRNKkZ6sx0tGpmBhNjYRsvd3WTOxSF2Sf593K3J6VMYbu3bvn/d2650LliqTJaLlAHZi5tr0tnpUAm4OJigBKTJAMZREmi7nUx0mG7MJe4QLW+aa2w80PcceVs0VrHXzlxotU4IWogdheaG8vreXvdMSHu3ZaEj4x8WQWsW3CSxu7cFrDc5mDdgwqti180utZjkRPBSJCNBrFwoULEY1GHfuk+fRHP/pRniEABDvDSI37Uf1F9pHOf86oQ2VwyMmsEiLAYJov5Xb7J2NgLPt5ExHh7bffxieffJK0Twq5Sy+91FGzviPC5y7A3lEelMhcMVkuRiAhiZ53niIjmBlGCZMhwayHzkhKZWn7lvErwrakqAFc0iqjklsVONxWZ8y72bEyrq8o3fIuskR2r169PL9b94S2I3FAhc8dnZgPZHqatGnLCqxEZAdVhcPhonUgYwyBQAATJ05Me0xW10q5VSSsLkLYlbbUpAr7I+u4CHORLjkhhUjEqUOqMy4VyH4fUCJVT7XVp560JnDkkUfiyCOP9NzntZpbscguB1gsFoPP57M1C8Mw7BRMafVrbXu4esN8EY/Hcfvtt+Pwww/HyJEj8dprr0HXdbz00ksYNWoURo0ahcceeyxJurYl5OJg7k/OA5ox10fZZoMsJ71pC5fLu8AqVsRQmJBmU7ArtV6IIEBp6y+qC1p5tSFVfkGx8nfXr1+PE044AUuXLrXrvkydOhWHH344Jk6ciIaGBrucSmvA1RzQfLF69WosXLgQixYtwvTp03HNNddg06ZNuOSSS3D77bdj3rx5uP7669HS0pL0oOqnWGj9/TjMshewVRK5+oWD/lKg25YVV90WuJ5f2uHVTyvRmv4t5Hfi/q7l3GHChAmoq6uz3/xXXXUVNE3DP/7xDzQ1NeH+++8vyBuGt5bkRIRDDz0UL7zwAkaNGoX+/fuDc461a9eCc46xY8diwoQJqK2tddR1ceuF0gtbjI9c6i8byIx958cAk+sRSYKqEYsKsdSJqn1Hcm1w29sLCNmv7v4lVxtTfVrTz+q11d/l/u7du+Ovf/2ro0LBihUrcNZZZ+Gwww7DzJkz8dRTTxVEjfIV4iKhUAh9+/ZFfX09ZsyYgTlz5mDfvn0AYNdg7NmzJzZt2uQ4j4jQ0tKCefPmASjOjF/OR6ZPn44uXbq06lq2eZEYiDicy15wEDEw62dCagtlImrmijKllHS2bh21PEa6EUJEePHF/9/em0dbdlX1/p+59j7Nbaq91SaVSp9UIJAAP0Kg6IKJEKR9wk8dRB2AoCD6JIqIMIY+hkQQcGhEUIY8/KkwYvJ7REXRnw99D5DkISKhSUjfkeqrblXd7pyz915r/v5Ya+2zz7nnVt2qe6u5t2rW2HXu6XZ3vnvuOb+z+ye+/e1vn1Qns9ls8iu/8is99cftdps//dM/pSgKbrrpJi699NJZ32u1WqxevRqArVu3snv37kXZn0VrMrpr1y5uvPFGfvVXf5U3vOENfPnLX8Y5R6fTIUkSdu/e3XPlxpPeaDT4sR/7sZ7XToYsaptkrf7ZNUn8C8GccZE/D5mMLkRFXSVfJtCHR99Y5TNxJPUcYozhGc94Bps2bTqpke/qMDbotqRbu3YteZ5jjCmVYLzD5HnO8PAw4+PjANx///1s2bJlUfZnwUAXEXbu3MlP/MRPsGbNGoaGhrjzzjvZvn07qsodd9yBtZaZmZnytWo2nDGGq6++uny+dKTPGa3QhiUjUgH5IOmxzcPXtEJ7DnQy+8/RUcwdVeXcc89ly5YtJ/389lClYcTMTTfd1POZe++9lyzLeOKJJ5iamuJHfuRH+Ku/+iu2bNnCLbfcwjve8Y7y+wuRRdHo//qv/8rIyAgiwm233YaIcOONN3LHHXfwO7/zO4gIt95668B2F0sL3ODDnQ5co8searVgoqreBzmBvrFo95n2RE+lzHIMurtC/Zpu+hjg89UNhiP1KjjV0ePqfvSDtdPp8IEPfIAtW7bwhS98gY0bN/KhD32I973vfXzgAx/gR3/0Rxet74voAl3reOvpWWmlW8CRZrufznJw92Eeuu8hkllxJQUpwI2w+q8/zdjX/ieJrWFe/Czs5vNRBya3FC7H5BlSFJDlmLxAixw6OZplaNaGLIN2C9PJce025DlGHaI+c9EaGP8vb2TiR36SIm0hWiP2hOnujXLl9mfQHFr4QK6TLdVGtdDFTVUWq+X1og4CqEr/oK6TnbxfhuYH3EEWLRtP/ZS5yJWXelh8pNS/bnF0OXXF+igqDocN+ef+NQSMirdOxIO9Zh0qwpFnbxz5PBzpOE9lJPRk3t0XxUY/0g6einz2yOZ897vfHRhosNZy7bXXLtwhVQ1Zid0eiz15L0TmsaK1NBZCU6bmxkinRg3niZxjzFOcaxeVhx9+mD179gx8T0R4/vOff0p+p0HYOVFgPw1GQiy+RK39la98ZVZfFxE/ROyaa6454jq6/O8RTryLY1lmf5cQ6u9a1V2nM9rkEi+CSjDJhe85eq6P4xbnHA888MCsttHx+JIk4bnPfe5pW2CzWLLkgD7IpRikBUZGRnjve997nBvpFkjgBnj7IrH8J2jkkI/Yt2tVRqVr1Wi3a65qqfGjQ2tw3dmlx7f3PZKmKa961at41atetQhrW7qy5IB+0qQK0rk+QshpUYeppNpG6Wn6Txe4Bj+BWisAL78XL1o5m2e+mHIW6HPI/AofYopu97l/GJCnUgF1Dx2p2pu+eyLyAM7KWaAvXBRf09/NQVc/owX6XpOe13wH3uoj6vmZSC/2O6Ny9JvMWZlDllY1dJ+czIzHuXdCvPkyQBNXE7ykT8urhr7pzmFCcYYvswsFHJX2dLEFhk8n6NX68ym3W4zzdFqc6wXIktbo3/72t7ntttuO6UeIn/2t3/otVq5cueB98JFNF4AoID4xy1WcTKgwLFqJgpZOqQVnvWYvQ6J+/V7DtxAbI6A2vBUKw+Go1s6dd97J17/+9eOi7n7jN36DsbGxJRHkO5IsaaBffPHFvPWtbz2msrj4gy3eJGsJoXvxrErIUCw7JAZNHgFPxTaPqK6msgrSU+ehCCIZuKGBXcLmI89//vO54oorjuvoRkdHS7p2KYN9SQN91apVrFq16lTvRsmXd1Nno5lSqQaNmpzgkEKp8WOlkL84gtYn3gAE4+Jl07u+cuNHkc2bN7N58+YFHuPSBTkscaCfLhJBICpdLQ5dM0QrgaUKrdhvcpQBo4Bp/7ZBNBmQvRvdq5Mzdn6J43zpAX0+t8/+qdbHu56jiarvhGsLJYkN+mMhdCVlt2RL1GtsE15zhLz0OHe0z8kUJYxQF8SEvIBj2sGuryBG+stcy12cVQK7DGXJAX2+kmUZX/ziF+e031/96lcvYHK0F0V9y+jAqpQavUfLBnOlWgcanVGrZW/Gbo/GeHfopgp4Vqc/RB97AhyZOFNVvvWtb/HoI48ipoJmBecsJkl4/etfT72+bKEAnASgnwonJiYLqeqcnQcWs9qmmwLQdTi7oA9Uovo+6rEgqJoGICGxZd7docvxLhHsc+4Yxvh2JoUtoC+/TUTI2m3MaaTOe2ptFzGl+4QAvUr3nYo0XRGh2WyWo9ePbx1HeX+uN6phf+1lW6LDSrDDS3ucoOjjMAC61s88tsiRtLoIXHvtNVx77ZGT2E6FxEL1mHMeO4cVRbHowydOaMDo3nvv5ZWvfCUvfvGL+cM//EOKolhCgYcja5PIi3uzw1E2m9PKNDntZWSi5q6yLbGxaFlDWjk98zlVS+d8zpZHH32UN77xjWzfvp33vOc9AExMTPDzP//zvPCFL+Qtb3kLhw8fXpRtnTCgT09P85rXvIYbb7yRW265hT/4gz/g8ccfXzJcbNzLRGTWEgfdGuebhBotQmDHgkhwLH1E0zgQ9UUWTn1QKD4CZSG1qk8TiEN6cdav7xjkdAd9tY2GtZa3vvWtXHPNNdx666187nOf44EHHuD9738/Bw8e5DOf+Qz33Xcfn/3sZ3viDMcrJwToqsqDDz7I+Pg4P/VTP8W1117Ly172Mj7zmc8M3OEj9RU5UctR5UjanNDvsLSvrZ8QR9f8CAfWjYZWG/6X6r33HFBd6N/P4/+p+ld95OXknONYX3zzzTdz1VVXMTw8TJZlfO1rX+ONb3wj27Zt4/3vfz+33XbbcR93VU6YM9pqtajX69TrddI0Ze3atTzxxBM9Gl1VmZ6e5lOf+tSJ2o1ZEn2GX/qlX2JoaGjxViyBKRf/dwwKeebEhueVxkGVx6o5EyVSfwsVa5Uvf/nLfPe7353n3XRxePlms8nb3/52arVa+Vqr1eKTn/wkzjne9KY3sXHjRgBuvfVWNmzYwNOe9jTa7XbZ1+W88847vfq6DJLR0VE6nQ5ZlgGwe/duLrnkklmfq9VqZbuLkyEifsjXgkwordrvGuzzLjKrfV16wEufS1kFff97iySqynnnnTfP4+3l8hci9Xq9x5GssiiqWjqbn/jEJ/jSl77E7bffDvgLZHx8HFVfArhhw4ZF2Z8TBvSLL76YTZs2cfvtt3PllVfyb//2b3zwgx+cRTfW63Wuv/76E7UbA2XBtqwxKEWwRLxlnQRzQzTa5RqaFrmy6X83DcB1NXaFXdGwbp/BOL/MxKPvqmHb5ZdzxbZt8/vCYmy0urpKnkyz2eTd7353aaN/9rOf5UMf+hC//du/zT333MOzn/1sXvKSl3DHHXdw2WWXccstt/C2t71tUfbjhAG92Wzyz//8z7zpTW/iT/7kT/jN3/xNtm7d2vOZU+GYLpzXF8CACVmLzqKmO2irWjWkzncHUPW9XFxIxVUXWJrE9NjjIgYztg7dtw8NresWKj5ccCzHu/i/SfV8xzvqoUOH+OM//mPOOeccPv3pTyMi/OIv/iK33HIL7373u7npppu47rrreMtb3lJ+92jR7iPJCQF6vEWde+65ZWu6er2+5IaBzS3VAJErQ/w9EXbtfXRxcG640MzwCLpmBB7bSdHxXYZl1WrMyAh23z7fwm2JMFTHKkmSsG7dOu66666yWF1EyhZ1n/rUp2b1R1+onDCgxx2MI0OWo/huK/NTuxISSkTEq1kj1AvBrh/DZTlZZz+1NPWa3EUbdnH281gstZNxbUWFN4gMiFp7sUfNLFsUWmu5//7753zv8ssvP/5Zo6UMUOW973YTawMbQ7NJMjJGcWA/9tAhGB4i2bAO0+n4uo1AIxoxGLM4P/KuXbs5cODArFC/tT7XZdvl20jS5XK3HSzLFuhZlvGXf/mXTE1N9bwex79/5CMfWTjQFW+OSF+0M068KJ/H0D8kjRomrSNpSmfvXsz0NLWVq2huXAd5AbUUueA8LD6Nq9Fo0CrHL2olz2X+cvddd/HVr31tlmo3xqDAhz/8YdLaInYXPkYZRA4stv+2bIHebDb5b//tv83yC2I+xaLYfhobhFIma0HMVany4z4+lDhgcgo3NYVMHiZdvwF3cBy7axdm9WpIE5//EduJilQKHgSv8qVvfvTR5TWveQ2vfs1r+vr/dvdxUVton6aybIEeh4b1y6JmU4boaKLd4eXAwLTxOPpFbYFmGZI0MMMjCJBPPYU5cJBk3WpAMfv2YWfaGOjrNCY965uv1GrpES+KZerz9sjyNswGyGLeEstkrap6ldmaNlYXFeooBDQRimwGOz4OYkg3bqDodNB945683LSeRIB5JsEd9YgqNaiDljNBlrRGPxII5gJ09TvzAv1RcBaLI6L96zRGSiMADbjQ+SVNSVasQGo10vYM+a5d0J4kGVlNc8N6it17kB17MLUEOhmgPYMByr3Vqpur3WXRQeu3s9QLo2EJAz1G147VkekPQR9JjtYDsbvt2CDUt3729HocwRhBLyTrN/pIaauFkFBbu5b84AHsrqcwazaSjm3A7ngSkxUoihXbc9fo7k8IMoU6vd5eL7P31tP3x5IBGC4ucRhJz3YBONVyzz338PnPf/6YWw+LCB/4wAcWpYOAlv/F513QiYZsRiPI6CikNdi3B/bvxwmYkSGS5hBZayf1Yo+HV5aFSiT1poX6TMmY195zHBz1hgPA3/3d3/HVr351/pVEpQPgeN/73s/atWuXNMhhCQNdRLjyyit53/veN+f7R5L51Iv6AXM6LzDNJSICq9ciaQ1mZrCTkz5toDWDTQRTq4EK+aHx0KjUJ/x6Tv0o62Yw0PsTxK6//npeuH37MRjkUaMra9asWfIghyUMdA202NjY2MD3F/rjLLyIIWh2pzA5Aas8fUijgU5O4ERIEoM6C65Actsthi4PIj4u7FiGhoYYHhqacz1S3Va57xD6hC1o26eLLFmgz7dwdiGAPdp3SydUZtu/agy6csSbLtOTmPH9mJEVyNga3FBCmjmMy7Hj4yRZVvZjN7GAQ7o05cIGHoORIycqaOW/3k0tzvygo8nJ2MaSBfoJl3leIC5ERqWiidWkmDUj/rktkDTB6WH00DgyPESt1oAiIzuwl2TXLt/XBcKIdf+3JZgvVo+5ncssmYcZFD+4DKyUgbIsga7qh7N+85vfnDXaJb6/ffv2I1YYzQfmPv02gDPmmguYeookBjc+jnYyGB0hcUoxEexXIwAAIABJREFUPYHMTGFW+onV0s7Q3PasT2O0VXoNhx5CUY4cMOrPonzwwQfZsWNHb5lfuV7lpS99KWl6drTLkhNV38/lkUceGQh08I03F2M7qhYhpeYcHQCFoeEhOgpFllNbMYK2M4rJCZI1a3EHDuD2jJOuWYXbsAltZ7g9u8omSD29F4+0bTxl6dW9X8rhApWrQ1XZv38/jz36GD1udbhIjQjuxS9mdoOk5SWLAvT5BG5OJg8bw/833XTTwrd5FNXutbghddAObIUtLKQ10vVjuMlJ8v37qa9ciSYJavdipqbJ2zOYFSOILSjCegbRh6Xm7qFYDJFN7xKPg/IOvH3+guc/nxe84AVzHUBvB6+TKIOCd9USxMVsYLQoKQBFUfCNb3yD17/+9Vx//fV8+tOfpigKdu7cyZvf/GZe/vKX8/GPf5w8zxdjc0eVOKU4nqi5lqOup/LYv3RteKGo15kaW0GychWmMUy7U6ACxgqaK8nK1UhjCJmaxnQyErXI5ATuqSfJZybxc0ctShgGoN25RolCYSB1/nH2gN+jH0Tsuzhw6XvvZMqBAwf4hV/4BW644QZ+/dd/nSzLOHToEL/2a7/GK17xCt73vvdx6NChRdnWomn0X/7lX+ad73wnl156Ka997WvZvn07N998M9u2beNjH/sYr3vd63jmM5/JDTfcsGw8edQXd9c2rCdZsQpN6hQjdeoiZIenSOop6XAT8hpy+BD24Dg467WoOqSTY3KHdRZiEyQHqOAMaMgAdgI1By4JbTaOQU5n5/Lmm29maGiIW2+9lde97nW88pWv5LbbbmPXrl184hOf4NWvfjVbtmzhXe9614K3tSCgV9vN3Xnnnaxbtw5VZWhoiB/+8IfcfffdfPKTn+TCCy/kLW95Cx/72Me44YYbyu/3tndYKG99bLI49KRB1qyEoTrF3oM4WYlb1URtjs5MkE9YyAqkVSDtKbTIK7kx+LuCU4yacAHEG4WWf0fHdFBw6FjO2Ek+vbMvMI2dgbsmyUc/+lFWrFhBnucMDw8zNjbG3XffzXve8x4uvvhibrnlFj7+8Y/zzne+c8FlmMcN9AceeIAvfvGLqCo/93M/x8aNG8myjJtvvpnrrruOCy64AGMMjUYDEWHTpk088cQTs9bTarX4i7/4iwUdxLGKiHDTTTctvJtuvYFtNnBSgGY0RusUnTbtySl07RjmwAFMNokUBepsX4fcrk2ugTQXDb5l9CkXQRurwr/929f5/ve+t0iNLOYnw8PD/MzP/AwRnwpMTU3x2c9+ljzP+emf/mnWrl0LwCte8QparRZbtmxhamqq7Oty8cUXs3PnzkXZn+MGepZl7N27t2wUmWUZv/d7v8cjjzzC5z73OTqdTvm6qrJv3z7OOeec2TuQpqxZs2ZBB3E8Mp/Ci0rKFj254ASTpVnHZDlJcyWydiVSZMjUFLXhYbSW4oo8pF51GRWprLmkElUxLr5f6aobWBMte6fPgfySaB/wvvp0h7GxsZMKdK/gKHdbgMSk7Nq1hzzL6HRyHn74YbZu3coXv/hF3va2t/GpT32KkZERDh8+jIjw6KOPsn79+rJYZiFy3EC/8sor+fCHPwz42sPf/d3f5c/+7M/4/Oc/z2OPPcYll1zCc57zHP78z/+cN7/5zXzuc5/jIx/5SM86RIR6vb6grrcnWpIkoVavdWlKDa+lKZK1cRNT1BurKUyCpglu5SiJSXCHD0KWhWnQIXLqW+ZiUawoCfhgkVaTwaopvnGTCtgjR33mQrHA1VdfzdVXX31K7XUFhoaHueWWW3DOkXUyXvCCa3nve9/LK1/5Sp588kmuu+46nve85/GFL3yB7du388EPfrBkzhbK2i3oMom21lNPPcXf/M3fsH79em6++Wbe9a53cdddd3HHHXdw77338oY3vIGf/Mmf5OUvf/lCNnfSRQTqjXrXwA3OZ6PRABHanTZ2Yppi5xNIniNpiqQpTE3jJidCl12InbhChbQP7xvBhrpScdptaNQnR9LC/nfXI9rfwulRYFE2PzCQJIZ6o86//Mu/cOedd/LjP/7jZffc3//932fDhg289rWv5ZprruHtb3/7orRJOW6NXuU9t27dyl133dW74jTFGMPtt99Op9NZ3D6HJ0jKBjnhuYR/ReHt63qthrUWZwwmSUhXrKSWJOStDo09ezDpiJ8ZOjlNap3vu1/lhVXBOsS6YKp07XXKTMlKwKi01SNnXjFhgn0jApIk3Wz0AWT86Ua8iECaGC677DL+6Z/+iSzLGBoaKnu7/NEf/RHtdpvh4eFF49IXhV40xvQU2FZ3LEmSRRx1eGJFVFCFw4cm+OHjT4IaVJVarUZiDEkoXu50OjSaTZKVo8iGNejuQ6gmOOtwrsCognOYzEIrR1oZ0uqgeRuTt6i1O7gip+Ms6mzZ2AjoiYqW4A2vxSFefXvNzqd2sGnLRuqNeo9dvBQkTdNZvX+MMYuOmQUDfdAki+MpcTsVUvp8oTRNOwVPPbaD3T/chZEEo0IWO0alKVmWUVifm9LptKmpRVaP0knqjOZQO3gY2bsL3bGDmYMH0JkWkuVlP3UP2OgEO5KwDyLdc+ZCxDO2x3ACQwW0EmgWUIj0jmgRZd/je9i3ay+XXHYRa9YFx/50T+6QcMc8SXg4YZ26loKUTJ4IUweneOzeh7EtS9010NC/PElLOPqWac5hnW8S2jowjuY5K7Kc9te/zkR7BkWpOTDOoTJ7OqcElPanf/c6n3G//PPEAYmQKOQxNNtNlYTCghoevvcRVo+t5ZJLz0eSZMlo9ZMhp/t1f0LFOcAqe3fsZtcDT1BvDqHW9zGPSCqKAnUOp0qj0aDeqJNlGdY60naH7Im9UBSIs+VA3JgkKK6bYusCtViN4Pe7WFVzxRACRur3Rpx/NDpr5happL5xqSoTuw/wg3aHi6+4kMZoE0yXfTyTcX/Gtbuois0sTz74ODseeJI0aSDOUKvVkMrQN1WlsLa0zcFTookx1IoCOjnOKk4Fp4KqYEUoBKwJXQECpRKLKeLi6F1mGXwhOtqbdTjgQFQRBKMGg6F9aIb7/vM+JvdNQhHTv05yaPQ0kzMO6GXbuNzx6PcfYv+OvagDax1FUfQOFOvDV6FK1m4jKGtczsqZacCVNJ8TpTCQG8hFsYIvjBbFCD0JWwYQ8RU9UeN6OPrSi1D/z+ihcWoWjE1QLHltBmsUa3w+TM8OhkUUbNvxg+/8gIN7DrJIHaiXtIhz3Wz8pWJbH49UwZu3Mx793sNMH25Rq9VJjSAYNETgVB15XvTMKFVxjGaCaR0k+ed/ZP2X/geTh/eSBGeT4FglwUCIFUcdhSJNIa2V1J9zHnnGFSSFJcVhxHjiRUHF5zIqkA3XSNeNMf4z7yS55mV0zAiJTUnIadUKikRJ3KCsRoOKogbOu2wLG85dj6bL+zc+kpxRQHcobrrgyQceZeLApLfJ1U+eK4qCvJORpin1eo2isLTzrMwWHG1NU/v/7mTo7/4W3fcUVoSa806q4OlBW6vD2nW49RuQsbWweiVmqEmt3vRN/4M45/wY95kWbnoad+gg9sA4yfg+dHLST5R2jlQ95VkYMImBSy5n/I1vpvbslzBT8zuWqGJFcLN+Or89i0UTx/mXns/689Yjy7xr7lxyZgE9K3j4nodoT2Qkacx38SZCu91GrSNJEuqNOkWWAYJk06z/5neZ/ItP0Nz1A2oFOJsiConU0HqNzvr1pBddxPD5W9CVwxSJZ12MUmYn+qZGUuavCC4wO77SB5SkKJDxfUw/uYts1244fBhTdEidr//JEyGrGWrPexHJT7yV/eddSLueklgZUFpXubDC4NPzn3Y+a85Zs2jN9ZeSnDFAx8KD37qXyfEp0ISRkWGU2OnLIPjJC6nx41ZkOmNM6hz8449T/5e/oq6K2hoOS2Ecea3Gym1PZ/iqq8lHh/0GxISqIEHVlvw5+MQsp137wqqjVihqpJvNqJBaxSZC3Tp04hAH7vk+bseTpIGBT1TIUqFVT1nzzl/lwItezkwyhKlWUIvS315aVbGJZdtztrFi3YqTcMJPLxE92YngJ1lUFXHC3gd3suOJHd4OT1KGmk06WUYRJtTVGw1MWkPVkcy0WbXvMWp/9Rlm7vqqbyGX1FGFolFn6OpnMnrpZXRWjVIO38qVVLxdTJGTFBZXWCQrcHmBcxlxiK5Yh4RaT5Gg5VHUJCS1GtIcCuYQoBY7NcnhB75P9vjjrLGGjigqwgrqHHjJddhfeg/t+ipqRYpxBTP1HKNJjwca/GVoCNue9zTqw/WBwb7lKsse6DhlctchHvreg4ga0pCv0mw2abVmcE7LHIt6rYHLOhT3/ierbv8MwwdzWo/eA4XFmCHyyy9i+NlX0lg1hjVgQ+5KIgYpHC7PcVmByzuozTHOJ2wZp1ic76UYnpe+cSUXBiApgoWTGEwtIWk2MGlCPXdMH9jP+IPfY3T3flILk2lCKnXkWc+h88u/yqH155NgaeYJ1nSbnUIvh95cPcxFz7qEWqMGLO2eivOV5Q10B/lEi+//x/fQ3OdQpGmNIs9pDg2RdToURUFWSxgdapJ0OjS+8hWaf3s7cBgz3cY+8UM6Q02SF76QlRdcAGlKgVaYE4ttddBWG5M7UgeqFpXuFDoIGjvwfD41d/YsUudcmbYb81VUQWoJyegQJk2pFZbD3/8uyRM/JCscOKhLnfal22j8+q/z5Hnnk7phUrUwB9BVhLXnrWPrFVtBzgJ9SYu1lkQSHvnWgxwePwROqNVSRHz8MknS8AMrUzXYMDkN//gP2K/8PcN5G0WYfmoHdsUIm1/xcjq1Znfl4qvri1YLnZzyhQEBwLF/og3xSxcilgLeMQWMC8B3XaBXR8L49RBaYHjTphCwqVBbMUR71RDNXXvI776HPGuTq6PuauTnns/qj/4hT6zbQGKlmyhGJSNTBDVCgePiZ13E6nWry9eXsyxLoMcWznt27mPPvU8APuswSi1NKYqC5lADoUaqbVb8768x+Y//D6OtNnWrTIwfoL5uHY3t25FaM2hpb1+7LMO2Wkgng1g3q93e6FKZYUQouuhq6m5VEU57HFH/7TCVrjRv/PoSJ2D9hZKngtuwgpGJGSa+/T3a01NYLWi4GsnmS+CWj3Jw/UZsKKq2ISgVqVI1IUF9pXDVc59ZtrtYzmBftqRq0cnY/9AOxEnQpMaHyNVgC4cB7PQMRTsj/f63OPh3f8HQxBQ61WZ6915Yv4Hm9u1Qb3r+HdA8x05NU0xN+g5cYcKzc4oNA3OxhU+icUAYpYj1oMYF9sUp1ilW/fcIM0jFWYy1iPo7gsOi6vNsCrVYLBkFWWcGt3M/1imrnn0Vsno1iQipWordj3Doj36bFYcOhIulkoJAMGacTyO2UwU7HnkKcdVZSctTlifQVdn31F5cxxu6pprVFAoRRBOc1qntfITOhz9K/d4f0HnsKTpP7UQ3bWL1i16E1hohV9yinQ52Yoq8NYMWNjT6D5o51nU6G+4mvoMXTnvs8Zh45ZPE/OKB7/xrNixFgVqHWou1BbYocIXFOosNacLOWg4fPszU1DTrr3oGOrqSdqKIy0i//W3Sv/08jaJDFrIe0/7IqYKx8NQjT5G1spP445waWZZA78x02P/IHm/vDjDMfOxGGKYg+dM/obbnUbA5xlq48HxWvPTF5Ko457WzTrexE1O4LCdxdNepPtijrvAXQwC8qPPfCyAmLqEgo3wMi7iuxieAX60L39VS42MdWPX0pC1InaOYmWZi/wHWXHUl+cgoQ5rQMErrzi/QuPt/sboQv76wvz2LU2omYefjO8uXlqssS6Dv/eGe3gFas0QQdbT+4fPwnW/45CtRJjetZ/jFLyQTH3avWZCZFvnkJJrnXus6B9ZrdBs0cznWJWpmZ8PnHLgC5yxqrZ9IFxZsfM2/jrN+vTZofueCVu+uV4PJIdZhCofJC9LcIu0WU+MHGTv/QqZqDawqQ7ZF/tk/Q1u7KWqmNwMyngWFxBrGn9zL9OHpE/iLnHpZXkBXyKYz9u3YQ6z4jHyDuBo1Jqi5nJpNaMzspPHX/y+1vEXdKXmSsPZF29E0xdoC45Riepr25CEftHEFqhanFofvruXUYtUGAEbK0ZY2sKr1+e1hnlFkYFw0XSomTMx/cdaGC8QF274Cdutw1l841jlciLZqYUln2mSdFisu3EJuahQqDO/ZzeQn/5BG0cIZQdQgarDiH416s06dsu+pfaf0pzvRsqyAbp2y94kdpB1Aex2smhMmGinGDZEUbcynbsVN7aXQAmNSVj7v+TRWrsLhiyVca4aZqQk/XMsWwRyx3g63LtR6elCqWm++OA96rdSCqrNoUaDWlt/HVcEc7H1nS1NGS3DbHpCrtV373jnv0AYH19qCIuuQZ23SkSGMgyxRhu/+BhseetB/JzAvNedz5aPrkiYJB/fsx+bH2thx6ciyArpzjsP7JrzN23OrFqyxrGgN0ZI6tSfvo/PVu1BXoAhTGzdTu+ISH+lUhSyjMznheezgTBr1qbdRW3t7OYLQlqaF/ztcANE00a49Hs0RLUHvyvV1zZMuQ6NV1iZu33aB7wqv2VFFC0unk9EYamJTg0Opd2Z48s/+mFWdGWwIDtWtz5knnCVVQXPHzsefWrZ2+rICemciI59ooyG3uxqIcfjR43WZJvkff82ILag7yGtDjD37KjriqT7JMszhCeq5B5SzNpgMXe1aBaUHbQBmALArQl2ptThnoYi2eAX8tvJaUXle+MVWPm+DZneFK78T7wRiHVb958UG2hTFjjR8YEqg9tD9NL7+NUZR8pDwlYR8eRVw4hBgcu8BrHW4ZajYlw3QVWHnI49jkgSd47AUaD76A/b+x7+TJRaRhNoFFyAb19HoOOpFgUxNo53C29O2azuXmjiA3Ne/uVLDe/vc9UQ3q0Gh0p4uqcbuaz02eiy+DheXdRZnC6zNca4INrq30531foI6Da02nOfzHaSNOu2G4FCSvM30//4ypj1FLg5rNOTS9971WjMZttBlWY60bICeZTntwy0/vHAAp+iLioXsf32ZWuGLm2dMytC2S8jUUqjDdjq0220KZ30zf2+xeycUGwBW4NRPkiNMlHOBXnTRRg9g9ore15L6oJMLwAy2vivQCFq1uNCuDnzwyDu2rrwjRee3sAXWFVj1j56yFKwGa8o6CgdpWqcQR2IU++3/oPb4w6zMlEKCw1xWQ/nIrlhh75M7fQR1mYF92QA9b3XQfDBvDiDqaGgb+fdvUNOcmoFk42bMmlW4wqJYWq2Z0hkEusGdwIaUtF+V/guPNpgbg5YiPhaF18IhENT9Xvd1F4JCLgaQwoXl3w9UpYsXld9+ue2YVyOJ7z8jpgyQGTpM/P3fM9nIGYxiX1y978ldqGXZtQxYHu0uFCb3TRI6uw0UI4b04Xuwe3ZTF0tdDcPbLsc6JbWONOuQZV4jG/DmQMgziUEcYk5KCKkTMhidxCAQ3dZzMewe0gTKFhoOHzENbSxKBzNsM34/tt3wplB0hAPDE3s2aviOmG6oXyTst9+OkQTncnJTIPd/n1HNyKgNPEcCuNxRdDJqjfrAzyxVWR4aXeHgzvEwImUw2FWVg1/8GxLbQp1jupaSr12BWocUlvbUDLYoIGrZoDWdq7AaZaQzavpuxLJKOWoI5WtJHfYGgEqWxs6+O0S2hZKp0dLM8aaSryeVyP5EBggwITnLOYfB9KT6Jgqd/TtZ8fDsHvVR/Dh2IWt1Fv83OsWyLICeZzlThyc50v1Ws8MMPfgQVpQMkE2bsEnibekiJ88ztOr0uWhOBPakwpK4wI5gq+xI4L6LCFhXMjEu0IDl31XAF5FR6bIpGsyULm1py4uJaOIEM8haW94tXIjK2qwDajHiW3Q4AVSo5x0O/sM/zXmWHIoYw+TBicX/kU6xLAvTpTPdohZAO7jUAAwZ7uA4zgiFwtrLn4mq752VtTveHKBrmzvnyhxy4mPVzAjmibjYAbf6vqKOnrwSn7prwYXuW86VOel+EACAlsUa0VRy2J5MSL+f4eIoE1QUY2q4IkeMQUQpbBayIBUjBouj6WD8m99ipCggrZUFHz2iMDF+mI3u3GVVlLEsgJ632yQq9BaP9Upjxy6yTpvUOnSkSW10JZ1A1dksD8DuAqdqN3eBF6uBPDDVxQFbLiR4udKGj7nn6mLtZ8hRr7AypV3twoWBK5+jnu1RQo+YMOSLWKARzSYJre+y3N8dKBDxxddJZRui0Ekgz/Yi05OwZmxWFpcIWOeYnpyOVs+ykWUB9Har3Z3/M4dM3fcDCpTEKI16g7YEE6ST4fKiUiRR4bqhLIDoAjba6xBL42KxBBVQxb+xUeO7rnaPHHsPqOnh4Knsh8OWGY6i3X2EbrFE7K0uxmDzjDQJnSCrgSGnjLamGW5NcWjNWtIwlKAqiSRgLXkno9ZIz2r000k6rcyDrtL0vl+zT9x/H00shcBIOsSMWoad76eo6iOMSheMxvmcF62AjqDVI4i1D3hKF7gEpqSahy5qAyPTNY/i+kzMkQkJY5E1iTy+VC6KbtovOAER6zv3GoMWlsQkqHMUeR4ulooScBa3dyecc/7AeIMXQ9bOSOvLp//L0ge6Aq0cC6GFRO9bgqOGMvLgdxFNUAqy1SOk4gNAFIUHcujxUtXI0Wb2lUQV8wUf1TQlEKNt77pamnCRYLv2dnkRaMjHofy8C6ZKuELKjMdIUVZ9AqmkBnvF3m2dJyLlpA1PPUrsmxTALnSeegpzlWPuuiKhyHKMWdjUvtNJlj7QAZd77SuqvRo9ZOtpkTE5OclqB5kBaQ5hihxb5Dibh8QrW2rtnsZDuNIRjJrcVR3Q4HR67W+RoGm7JWze7IgXSdTU/muBOiyd1uBoRtveVe4aYb2iXaB3S+S6mrm8UOO5oQvw2Fe3s2svjXA3mFPiOV20X+nUyrIAelEUR/hBBJNZtAgsB0q92aSw1jtwMQuxGoQJLIjGhs7B+StbVGjXQY2auXRK4wVBBby2e5FE66isSIoXlatsK15Y5Z3AlRra14i46uHNstNcd4/idRhA7cHeOTROw/gxNnOdN5v3d2Ff2rIsgB7rKAeKKqkL1fsh11yMwTmLFBYK57Uwvc6kuq4J4XNP6LG3y4tBu1X9MXpZUozlaxqimvFCceG66l44PoLaveCqCWER5PECMkdIRCl7xRAcUImuhZYXRKdoe8eVhHhZzD6nyyuF8ZQDvcrlLtTD9+3dKutTcNGuJf743jL1GX85sYTNVdpTVG300kGNpkQEIYSi5jjJwjuTpuS/o/b2r5X9XVwEc7fnonc6uyaSVp1f6ALenzG/7upxDzqvlD7xrNezPCsncMx5Lud1xpeOnHKgL4aIMcFGDw16ggZTARGDJoYiRMRRxVmLyQpsniFqMdGZJBRHhM8BPmBjK5oZyhYVXe0dgOW6AHVUtbeWof7q3aPk5Uu73nU1v+vCuZ8cGQTe8lyU13qcLhDoxfBBJ4IZHq4c4+C7w2LM9jyd5JQCfbF6J0mazGJcIPzUIrjEYMPFoA6KvMDkjrywJDE7ES2BqFQ1aJdJiVHMaDOX1ft4jY76HBevzCOYLS5eKJHCrNKEqoD4gFWgKtHYSrp6MNLF5FHUrYbbV0wOcOKbGAlCboTGyOiyCwgdTU4Z0AeB3KeYHvvpr9XriLQQh+fShXLyhDNKYQRdtRq3d4ZEoNOaodYc8dqzCKyI+shoWYYXbV2NAK6wH8HeVRt592gDR8e28t0AYFcCO9KVlI6nlomN4Q7Qd3z+sJQ4MuNI1nP3tHpNHjswxszbXITh9RtIHEc0X+rLLHtxWZguSZoE57H3ZxP1gNehJrVN5yP79oBabKtFfSwAtVohhCsDOl2wenZEQm5J1a6uanT6gB5Ng7LkTr0NL2XarQ32fWRewjq6axtoVGgPmdj/Xq9EatEpFCYCHZobN4IKRuZeV712FuinndQazQCu2QEjAKyj8fRtZPd+g+HCpww0i6Kk7sQGzSqe+Yj9U7wEGs7H0Evwxop/UXCR0HOV4BL0pPOC/45T1wV1VL86YJ+lF7gKiGj3K7Ov61lIV78Lvvci/tE4g2zaSKKCnSMyKiKhpfTykVMG9EEmSpXRONLnej8AjeGhSs5G7/c9VyysfOZV7L0joUFBnrWRIitNC3WF73MYGhuVdB+gmED3VQJHMS+8EhSq0oDdRC0PeusUE4ooQEugd0Hd407OeahVkFcfy/cr0TIroQOvBvPFQWYUTA3WrBnIyIA/3845kkbqne6TkOtyNOZNVf00kvT44bo8NPpQHe2jFqPE07bi3AvYmzbo2A5FnmPEc8US6jdLrRzNEuuCRgyavcq0VIsitGveRK676rzG564Eele8T1LZ7XlGImf53SrBROkefwEUGAqife7vLJPDTdKhVX6kTP89UPwEjtEVo6cMGUVRYIwpWZ8yLWOBF9yyAHpjpBG4ZZ+xN0gODY2QjKzFFVOkWYe81cI5EOsLnG2Ag7E+7TW2ma6G2j2wbcgnjxrdO7OuEuApc9SrGY09PEcX2T3XpnIUdhvKUKgoqtE5DRdcl1HEKhQohfqicCOClQR70cUkjRHv4PZTL8EeGl01esoomThIzDk/CtM5P0Ct2vb7eGRZkKX1Zg1zlElrWaNJc8v5OEkQhak9+4KdHWxySzBjAmhDSX2sHPLF0X5curXd6v9YNucKG9rJ2W653SxTbC4XkwGfmXvxvnIX5MED8Pa4itfi4U7hxH+mADKTcPnLX4mTtLyDzdq6woo1q0Key8lHu3Oh33wwoaIslNc/rYAeD7C6zEuMMrZpXWgVMVsUSJyhccMrUGtQMWQTExhXUM038d0lQilb7JUYTBXvpEbAh0r9Ilbn2267ONft1VIFufoDnAXbQa/NB+pxurTzY71w+KzFQmLpXKQ8/UVgRbAjq1mp18d+AAAPc0lEQVR7zfN8ECw04OgpAAnDw8xoLZhRJx/oUYv3gz3GL2KEeZA/dyRZFqYLBtZt2cjBnftQqwP9p3qS0nzutexdNUbj8G5/orIOquI7YZXZgXjNHoM8dHNPNJgu3Qsg2uOBcalIaZz078ygnZOuSTO/307KNAAPcoOTss9Audhy8RdE86JtTA+NUrf9Nku5dVraorayMZ+dOKESTZdazbM/x6T4BshppdEXIvXRFE1NWfVeFZ90ZcnqTYprnk8SaMHO4QlQS+FyrC1867gwNpGorYvYJs6FjlndHivWFaGrrguA055FpfoaR12syrw+V10ir+6Cfe/w4PbOqJAjFAKZ1Fn54hf7ETFziKKs3LCapGbKtZ9sqTqeVdOlKIoFafRlA/S0kVAbqQe+eUA6gFWcgTUvvIG2qZGoozM1hbO5bwlts25uuvVVPh7csQlRUWk01J1W0T3hfbQmngWJi+1bjgTa+SxRq/uiCi1Zl2ir5wI5Qg4UamivWc+5L3opNTHM5WmqKBduu6TyyqnJYKyarhHs0Uk1xhy7acsyAXo86I1bN+HmmADgHThY84xn0rni2WHiGxTtDmJNaAhaUG3k72L7N9vt8VKWzPmEgS74JFB8dCOS1YW+RQf9k/mBXEOtpxMpbfN4jKVfrYKKkJCQJbDlR38MaYwGk0z8EqzwqBjTZkpzpBEb1XGiqZcypbiinSO4qyCOadgLyY1aFkBXHxViw+b1JPVaqfF6FglFB8Zw3ht/lnZiSBGyiWlMRuDFPditCz0OXTRPQiu4oJ0j2BABMZ6TFg92TFikd5m3o1m5MGTAYUCFYSEEg4TQ3zGaLR78kRWdGB5my3U3+vhAdVVho+IdE0bWjoCpatQTCw+faepNlX7evFpjED+3EOZleTijQVxiGV2zkqndB5kVVQnRR0UY3vY09p3/dDY//n0S53zz/BQfqu8ZuKXdhKyTKIE08Reszr4/KT58r+DD+BqdTwkgV6wYwHCoBle+4a00128Mmn9w5NEZ5dyLtp7Iw5q1zQjyqolS7WpQ1ewLDRgtC40examy/oKNc9KM4INBtjnEs37t/exfsQYSwRUZReEzFJ11aOG6Tf5PKsi9rtWw+OcGSMrFkXgKEZ+Gq9FUITqfni/PRchF6aw/l/Ne8WoKo8xF3YoIq9atojnanLVHJ0LKVOfqkYd9staW+xY1+GKAfVkBXUQYGRthxfpVASgmLAIaThqQq6PYvAXz/OvomBoFljz3eeNl6i0xRjnAwD5hS+/2fIaMCWyKYKXbhyUGiqxEkGvQ5HhnVyCv1XnhO3+DotHwQ3TnPG/K2DnrfIPGkyhVdqUfxP3gPqvR6WqDJEkwRth0yWYyyVGJoZTwA4ZhVWBwUudpP/t2Ji55Goka4jCtkhqky26crCXSg3HbkYmxkaKMjE0IcpVJkXgu3WLKdIO2wooXX8/I059FIjWk2+irkhbspbliiJUbV3P09IOFST8lWNXe0SavavHjYVfmkmUB9KqICCvWrmB03TDWxJv6bFFgengFW3/25xkfWUsTU35WK5+xUVMudBGOurjgiDrpmiNV4JcVQ3T59pi0lQvkRsseLuayZ3L1T7/D+8IlhGeTlJacc7edj9SN78B7gqSf+zbG9OSwGGNKm30xkrj6ZdkBHQAjXP60bSCu1IbaV2SgQI06ay97Duf+3DuYaq5AjekBXtSqTha+zJsjD2AvnTIi+D396FkVQ47xwSAgkxD6V+gkTWZWruPZb/mvuNVrj1yNhDI0Nsrw2tETCnLoUoMRyPHvKFFznwiQw3IFuoAZrbHunPU48WNR+mtpBD8ivCBh3YtuxN5wI5009Z+PnbCOids+8jIoctrtNFP9F7Wf/3z3rhACQgKFSCXyCYUSaE/DRGMd23/zt1h52dMoJKGHZekLMZi6cPmzno5JvR9zIh3vqgkSNXvVNq+yLgvNVBwkyxPogS7bevmFNIYjkzDb2QNfYpaTctFbf4GVL7wOaxJS/KRl31nA2/WCQRd5AeOd5LCoiu/rr9K9ExFAEVpAW7yzaQNXHhcAW29y/VvfCtueTm4IHQekB+ACxJlI6y/YjDQEnbMH4+JJFeTRTKmCu+p0xsSuxZTlCXQEg0DTsPWKC8AEjSWGasjEGm/tmkQwjLDxne+n8fL/Qk1ScuMrcvLEXwxFMCki8I53kcpCGWXtsjzxcuy295deu1xjWm4om5AEIzA9vI4L3v5fqV//MhLXIFGHn8/n+i5tb8YNjY2w6aItiDEYkkVz+qoSwRxnMkFvum0E/KxfrxJAWixZpkDvyspNq9l4wYZ5fVbrI2x98y8x8/r/mzQdxonXds6wcK0XMDTbHZzDTsdfVN2EsAB80bAvgi9PEnT4PLb9ynvY+PJXYmyDJK6g5+AIrbUdtiGct+0iTG3xwR0lJmABA82TmLNSlRPZolr05EZETo54Qzc8EZxT7r/7u3TGO77JEd3bZK848kRRcUz/zy+x409uZTSfwSWK2khRDghVHofM9ZN2K/fVWx1hwEGVgXEiWE2YMSmHV63h1b/zp8i5GzzbojBVh2bRm02eOsHh6KSWi559OWs2jaGLPNGiJ/8+OJXV3PL+zy0WRz4fOSOADn4qxg++/h3cDIFLH3CCxfdbMQhTxqH33sNjn/4D2PEQzWIuoAvzQb5WPhq3OmhwQQl0vEPquwwYXCiX8O8ZJswQK659EVe97R2kY5to5N6Z7NQgdQzslOsSYf2Fmzjnsi34DIHFN1WqrMkgpiVKP+NyomV5Ah1mAR2FqclDPP4fD2En41uzT7BR54fvigKGbGI/B27/HIf/5e9JsylQxYqSqCm3Mfhnckd4VtnN6pe1y6VreV1J0OBKjlIkgo6t55w3/BwXvOzH0CRBTULNOazxtGjqvG3vKVVF1UFiWL15jAuvusSrfXEgi9vof64uDlXN3k8fnqyJGssX6IPEweH9B3js3x+AfPDYkv5XUgeI49Cj3+eR//4pmg/dR73IY2FR+E4Vxj7wpH3Qns9JLkP6ptthyydwGT8wd2SU5v/1Ep77ll+kWLkWCcXgzrvevesSb4IhilXL6o1jXPysy9DE+u8JCwJ6v0lS1eb9Kbfx78XIQjxeObOADjjrmNp3kAf/z33UpFmxKeimClQ/j5AnUCuU4aLDxH3f4Guf/TSrduxideFQcmpYH6WUuC7Fj18+NonRUfCRTmfASo3DSZPRq5/Ls978DszGzWg6RM0ZjPVToHUAp6DqUKO4xDK0eoQrnn0l2gB/6YTPHyfgqhX6c9V4wuwg0CB7/WTJGQd0CGA/OMFj33oA6SSoqwK993T0g0jEYLM2h+7/Tw5/+UtMfevbaHuKlJzUOT9FGpBBQA9kiX+/5xoD/DBbRcjF0E7qpGvOZc1Lb2D1j7yMxjkbaNgGhjRwZfFimg30GNx3UrBiyxhbnn4xtXoa+qpr6aMcr43eDxlrbdmLpT8I1E8hnqouvWck0MH/CFOHJ3jyO49gDzlUDSIVbRQeZwEdD1JrhLSwtMZ3sO87/4fOf34TefAH2IlDFEXeZ85oz1+RQoyMZWmnD42Srt+MefqVDD3nRax7+tWY0RVIoRgVEg1MiqneNQZodFFcall13jrOv+JibKIYEYyWb3tZIND7WZZIGfbTiuVunQJNXm7bOTcQ6Kdyp06KBMRlrTYPfvcBir0dIOmJIPrHI0ToIp0dMgZN1qHz1JPsve87HPjhQ0zv20Vx+BBpVpDkfiCAKKX2mxkZxW3YQGPTJrZefhljF11Bff15qPhMRJBQGti7T3NZ/Iofk25rlnVXnMuW887p5s4gczjNxy5RU5fbrQTEqpVC1UStUy1nNtDDY5Hl7Hj0ScYfOQAuCVy7lyMCvX+VqlijSCK4zJsIRi2JFuAsWey5QrBfSTCkJElKbgRjHMZaUEFMgqgJqcbzPJxEoWm49KrLGV474qOuZvG56n5Qx3RbY0xpxpxu+BFrrQ5yFE63HT0hEsHuvNYb3zPOrh/8kGKyACRo6mPIuVABTODCXWnmVLNseil4RaTaTMjgxGAQRJPuKvukj5HEioUarNq8hq2XbKU23JxNHx3nzxl7IfYzLPGxmreShDH1EUun09QMsdaH/Kr1e3CGAT0+dZBnGTsf+SHjT46TFIlvQjpPkRDNFA1O6ZFOoQpoE1xoFiQ5KhbEhsCVGbSL/qN9v41ZU2PzRZsZ27ShLKjyH5z3rs/ePa3MXQq46DdX+vnx/n07nTAkzjmt3opO9x0+IVIxY3yFjjA9McFj9z9GdqBNUvjgkK+K70/47bWdrfjv+6zHo2xX+ntrSelYRou6L+zlxXgtntRT1p+3gQ0Xn4tJDVJ1Lo/xJxsE2DzPy+KI6FcMwsKpDgbNR6QoCo3NYQYR/meClMdbtqMF1GKdozU5w84HdzK9fwpTZlv1Rf/ierqZU4vo+nlx4nxuCmBTyzkXncvYeZuoNetIsjATIQI12tdR8SVJMisgNMgcmSsD8XQSKQqfxBEPYFCOcHy+XGUW0PEBl6hlnXVMT0yxf+cBJnaNQ1t7PisE7IsHuirHXbFTanAFkdBqw3hwN1cNsW7TelZsXkuz2fS/ia+VW5D0V+VXNXd/AOhURTYXKmKt1aodVtXmyxncVRkI9DkOvdPO2L9nHxN7DtI51EbaPvIjEtejqHMkkh4zADUAV1VRySFVas06K9auYvXmtYyuWennNUU/qow+HesR9223Yo9XtTjMBnpRFKTp4PSJ01lEVTXmDlev1LNAn+OzrlLu5pSJA4c5sHM/M+OT0M4x+N4whhrE6h6Za4XdCI6IBKAbmiMNRs5ZyZpz1tIcGcLXA0GKYMSUq1pMoFfNlUGv92vxpYYNsdZqDN1WNftSO5CTLaU/45/grFJYR9YpaLdbtA5PkU+1KaY7kIGz3V7sSZKQpgmmUaM+2qQ+0mB41SjpUEpaTzAmxcjsa+NE/yLV3JUoVYLCWls6p8lRBi+cbiJFUWg1mgVnljY/UTKrhwldEydK7zn2+tmcgvNe5cEjmOPrUaqlcEsR6OmgJPmzIF+49J/HQe7bkYoRTqZUk68G5acMqvdcaiLqpfvCWZCfUVLtlgWUYfzqhToorL/UcGLmohPPypkhVS1dbbpfzWOJz5dy1Fycc7oUd/ysLK5U81cizVxNva1WEC1FvJyx+ehnZW4ZlG++VAEe5SzQz8oZIUvXjT4rZ+UY5CzQz8oZIWeBflbOCDkL9LNyRshZoJ+VM0LOAv2snBFyFuhn5YyQs0A/K2eE/P9rc4iZPaFrpgAAAABJRU5ErkJggg==;" vertex="1" parent="7">
                    <mxGeometry x="620" y="225" width="98.81" height="204" as="geometry"/>
                </mxCell>
                <mxCell id="10" value="&lt;font style=&quot;font-size: 30px;&quot;&gt;Convert Fahrenheit to Celsius&lt;/font&gt;" style="text;html=1;strokeColor=none;fillColor=none;align=center;verticalAlign=middle;whiteSpace=wrap;rounded=0;" vertex="1" parent="7">
                    <mxGeometry x="155" y="30" width="460" height="30" as="geometry"/>
                </mxCell>
                <mxCell id="12" value="&lt;font color=&quot;#000000&quot; style=&quot;font-size: 25px;&quot;&gt;Convert Fahrenheit to Celsius:&lt;/font&gt;" style="text;html=1;strokeColor=none;fillColor=none;align=center;verticalAlign=middle;whiteSpace=wrap;rounded=0;" vertex="1" parent="7">
                    <mxGeometry x="-30" y="100" width="460" height="30" as="geometry"/>
                </mxCell>
                <mxCell id="13" value="(32°F − 32) × 5/9 = 0°C" style="text;html=1;strokeColor=none;fillColor=none;align=center;verticalAlign=middle;whiteSpace=wrap;rounded=0;fontSize=25;fontColor=#000000;" vertex="1" parent="7">
                    <mxGeometry x="30" y="140" width="280" height="30" as="geometry"/>
                </mxCell>
                <mxCell id="15" value="&lt;font style=&quot;font-size: 20px;&quot;&gt;Fahrenheit&lt;/font&gt;:" style="text;html=1;strokeColor=none;fillColor=none;align=center;verticalAlign=middle;whiteSpace=wrap;rounded=0;fontSize=25;fontColor=#000000;" vertex="1" parent="7">
                    <mxGeometry x="40" y="200" width="60" height="30" as="geometry"/>
                </mxCell>
                <mxCell id="16" value="" style="rounded=1;whiteSpace=wrap;html=1;fontSize=20;fontColor=#000000;fillColor=none;strokeColor=#0F0303;" vertex="1" parent="7">
                    <mxGeometry x="130" y="205" width="140" height="20" as="geometry"/>
                </mxCell>
                <mxCell id="17" value="Convert" style="rounded=1;whiteSpace=wrap;html=1;strokeColor=#B20000;fontSize=20;fontColor=#ffffff;fillColor=#e51400;" vertex="1" parent="7">
                    <mxGeometry x="50" y="270" width="120" height="42" as="geometry"/>
                </mxCell>
            </root>
        </mxGraphModel>
    </diagram>
</mxfile>